<?xml version="1.0" encoding="utf-8"?>
<!-- Generator: Adobe Illustrator 24.1.0, SVG Export Plug-In . SVG Version: 6.00 Build 0)  -->
<svg version="1.1" id="Layer_1" xmlns="http://www.w3.org/2000/svg" xmlns:xlink="http://www.w3.org/1999/xlink" x="0px" y="0px"
	 viewBox="0 0 187.78 155.21" style="enable-background:new 0 0 187.78 155.21;" xml:space="preserve">
<style type="text/css">
	.st0{display:none;}
	.st1{display:inline;fill:#4C4A4B;}
	.st2{display:inline;fill:#E5E5E4;}
	.st3{display:inline;}
	.st4{fill:#C82128;}
	.st5{fill:#4C4A4B;}
	.st6{display:inline;fill:#C82128;}
	.st7{display:inline;fill:#CBCBCA;}
	.st8{display:inline;fill:#FFFFFF;}
	.st9{fill:#E5E5E4;}
	.st10{fill:#FFFFFF;}
	.st11{fill:#CBCBCA;}
</style>
<g class="st0">
	<path class="st1" d="M76.64,136.56h-4.2H71.4h1.36h-1.04h-0.13V75.63h6.81v-4.27h-6.81v-3.81c0-0.71-0.35-1.37-0.94-1.77l-6.1-4.15
		V46.05c0-1.18-0.96-2.14-2.14-2.14h-9.98c-1.18,0-2.14,0.96-2.14,2.14v5.9l-1.32-0.9c-0.73-0.49-1.68-0.49-2.4,0L24.88,65.78
		c-0.59,0.4-0.94,1.06-0.94,1.77v3.81h-7.86v-3.81c0-0.71-0.35-1.37-0.94-1.77l-6.38-4.33V46.05c0-1.18-0.96-2.14-2.14-2.14h-9.98
		c-1.18,0-2.14,0.96-2.14,2.14v5.72l-1.05-0.72c-0.73-0.49-1.68-0.49-2.4,0l-21.68,14.72c-0.59,0.4-0.94,1.06-0.94,1.77v3.81h-5.14
		c-1.18,0-2.14,0.96-2.14,2.14c0,1.18,0.96,2.14,2.14,2.14h5.14v60.93h-5.14c-1.18,0-2.14,0.96-2.14,2.14
		c0,1.18,0.96,2.14,2.14,2.14H76.64c1.18,0,2.14-0.96,2.14-2.14C78.78,137.52,77.82,136.56,76.64,136.56z M4.5,58.54l-5.7-3.87
		v-6.48h5.7V58.54z M23.95,136.56h-7.86V75.63h7.86V136.56z M54.57,48.19h5.7v10.54l-5.7-3.87V48.19z M52.04,136.56h-8.55v-15.68
		h8.55V136.56z M67.31,136.56H56.32v-17.82c0-1.18-0.96-2.14-2.14-2.14H41.35c-1.18,0-2.14,0.96-2.14,2.14v17.82H28.22V68.68
		l19.54-13.27l19.54,13.27V136.56z"/>
	<path class="st2" d="M0.82,136.56v-17.82c0-1.18-0.96-2.14-2.14-2.14h-12.83c-1.18,0-2.14,0.96-2.14,2.14v17.82h-10.99V68.68
		l19.54-13.27l19.54,13.27v67.88H0.82z"/>
	<g class="st3">
		<path class="st4" d="M-1.31,70.28h-12.83c-1.18,0-2.14,0.96-2.14,2.14v12.83c0,1.18,0.96,2.14,2.14,2.14h12.83
			c1.18,0,2.14-0.96,2.14-2.14V72.42C0.83,71.24-0.13,70.28-1.31,70.28L-1.31,70.28z M-3.45,83.11"/>
		<path class="st4" d="M-1.31,92.55h-12.83c-1.18,0-2.14,0.96-2.14,2.14v12.83c0,1.18,0.96,2.14,2.14,2.14h12.83
			c1.18,0,2.14-0.96,2.14-2.14V94.69C0.83,93.51-0.13,92.55-1.31,92.55L-1.31,92.55z M-3.45,105.38"/>
		<path class="st5" d="M54.18,70.28H41.35c-1.18,0-2.14,0.96-2.14,2.14v12.83c0,1.18,0.96,2.14,2.14,2.14h12.83
			c1.18,0,2.14-0.96,2.14-2.14V72.42C56.32,71.24,55.36,70.28,54.18,70.28L54.18,70.28z M52.04,83.11h-8.55v-8.55h8.55V83.11z
			 M52.04,83.11"/>
		<path class="st5" d="M54.18,92.73H41.35c-1.18,0-2.14,0.96-2.14,2.14v12.83c0,1.18,0.96,2.14,2.14,2.14h12.83
			c1.18,0,2.14-0.96,2.14-2.14V94.87C56.32,93.69,55.36,92.73,54.18,92.73L54.18,92.73z M52.04,105.56h-8.55v-8.55h8.55V105.56z
			 M52.04,105.56"/>
	</g>
	<rect x="-12" y="120.88" class="st6" width="8.55" height="15.68"/>
	<rect x="43.49" y="120.88" class="st7" width="8.55" height="15.68"/>
	<circle class="st8" cx="-5.15" cy="128.82" r="0.7"/>
	<circle class="st1" cx="50.53" cy="128.82" r="0.7"/>
</g>
<g class="st0">
	<g class="st3">
		<path class="st5" d="M99.69,139.39V20.7c0-0.8,0.65-1.45,1.45-1.45h74.21c0.8,0,1.45,0.65,1.45,1.45v118.68
			c0,0.8-0.65,1.45-1.45,1.45h-74.21C100.34,140.83,99.69,140.19,99.69,139.39z M172.58,23.44H103.9v113.21h68.69V23.44z"/>
		<path class="st5" d="M173.06,139.39V46.75c0-0.8,0.65-1.45,1.45-1.45h46.32c0.8,0,1.45,0.65,1.45,1.45v92.63
			c0,0.8-0.65,1.45-1.45,1.45h-46.32C173.71,140.83,173.06,140.19,173.06,139.39z"/>
		<rect x="176.87" y="48.93" class="st9" width="41.6" height="88.1"/>
		<path class="st5" d="M173.06,58.33V46.75c0-0.8,0.65-1.45,1.45-1.45h46.32c0.8,0,1.45,0.65,1.45,1.45v11.58
			c0,0.8-0.65,1.45-1.45,1.45h-46.32C173.71,59.78,173.06,59.13,173.06,58.33z"/>
		<path class="st5" d="M108.78,21.97V10.4c0-0.8,0.71-1.45,1.59-1.45h54.06c0.88,0,1.59,0.65,1.59,1.45v11.58
			c0,0.8-0.71,1.45-1.59,1.45h-54.06C109.49,23.42,108.78,22.77,108.78,21.97z"/>
		<path class="st5" d="M186.09,48.2c1.05,0,1.91-0.65,1.91-1.45V23.6c0-0.8-0.85-1.45-1.91-1.45c-1.05,0-1.91,0.65-1.91,1.45v23.16
			C184.18,47.55,185.03,48.2,186.09,48.2z"/>
		<path class="st5" d="M197.67,48.2c1.05,0,1.91-0.65,1.91-1.45V32.28c0-0.8-0.85-1.45-1.91-1.45c-1.05,0-1.91,0.65-1.91,1.45v14.47
			C195.76,47.55,196.61,48.2,197.67,48.2z"/>
		<path class="st5" d="M209.25,48.2c1.05,0,1.91-0.65,1.91-1.45V17.81c0-0.8-0.85-1.45-1.91-1.45c-1.05,0-1.91,0.65-1.91,1.45v28.95
			C207.34,47.55,208.19,48.2,209.25,48.2z"/>
		<path class="st5" d="M117.84,139.39v-17.37c0-0.8,0.65-1.45,1.45-1.45h38.77c0.8,0,1.45,0.65,1.45,1.45v17.37
			c0,0.8-0.65,1.45-1.45,1.45h-38.77C118.49,140.83,117.84,140.19,117.84,139.39z M152.99,124.79H132v11.83h20.99V124.79z"/>
		<path class="st5" d="M203.46,77.15h5.79c0.8,0,1.45-0.65,1.45-1.45v-8.68c0-0.8-0.65-1.45-1.45-1.45c-0.8,0-1.45,0.65-1.45,1.45
			v7.24h-4.34c-0.8,0-1.45,0.65-1.45,1.45C202.01,76.5,202.66,77.15,203.46,77.15z"/>
		<path class="st5" d="M186.09,77.15h5.79c0.8,0,1.45-0.65,1.45-1.45v-8.68c0-0.8-0.65-1.45-1.45-1.45c-0.8,0-1.45,0.65-1.45,1.45
			v7.24h-4.34c-0.8,0-1.45,0.65-1.45,1.45C184.64,76.5,185.29,77.15,186.09,77.15z"/>
		<path class="st5" d="M203.46,94.52h5.79c0.8,0,1.45-0.65,1.45-1.45v-8.68c0-0.8-0.65-1.45-1.45-1.45c-0.8,0-1.45,0.65-1.45,1.45
			v7.24h-4.34c-0.8,0-1.45,0.65-1.45,1.45C202.01,93.87,202.66,94.52,203.46,94.52z"/>
		<path class="st5" d="M186.09,94.52h5.79c0.8,0,1.45-0.65,1.45-1.45v-8.68c0-0.8-0.65-1.45-1.45-1.45c-0.8,0-1.45,0.65-1.45,1.45
			v7.24h-4.34c-0.8,0-1.45,0.65-1.45,1.45C184.64,93.87,185.29,94.52,186.09,94.52z"/>
		<path class="st5" d="M203.46,111.89h5.79c0.8,0,1.45-0.65,1.45-1.45v-8.68c0-0.8-0.65-1.45-1.45-1.45c-0.8,0-1.45,0.65-1.45,1.45
			v7.24h-4.34c-0.8,0-1.45,0.65-1.45,1.45C202.01,111.24,202.66,111.89,203.46,111.89z"/>
		<path class="st5" d="M186.09,111.89h5.79c0.8,0,1.45-0.65,1.45-1.45v-8.68c0-0.8-0.65-1.45-1.45-1.45c-0.8,0-1.45,0.65-1.45,1.45
			v7.24h-4.34c-0.8,0-1.45,0.65-1.45,1.45C184.64,111.24,185.29,111.89,186.09,111.89z"/>
		<path class="st5" d="M95.78,140.74h132.11c0.8,0,1.45-0.92,1.45-2.06c0-1.14-0.65-2.06-1.45-2.06H95.78
			c-0.8,0-1.45,0.92-1.45,2.06C94.33,139.82,94.98,140.74,95.78,140.74z"/>
		<rect x="113.24" y="13" class="st9" width="48.34" height="6.36"/>
		<rect x="176.7" y="48.93" class="st10" width="41.94" height="7.24"/>
		<rect x="121.82" y="124.79" class="st11" width="33.71" height="11.83"/>
		<g>
			<rect x="154.6" y="32.79" class="st5" width="9.36" height="18.73"/>
			<rect x="140.55" y="32.79" class="st5" width="9.36" height="18.73"/>
			<rect x="126.51" y="32.79" class="st5" width="9.36" height="18.73"/>
			<rect x="154.6" y="60.89" class="st5" width="9.36" height="18.73"/>
			<rect x="140.55" y="60.89" class="st4" width="9.36" height="18.73"/>
			<rect x="126.51" y="60.89" class="st5" width="9.36" height="18.73"/>
			<rect x="112.51" y="32.79" class="st5" width="9.36" height="18.73"/>
			<rect x="112.51" y="60.89" class="st5" width="9.36" height="18.73"/>
		</g>
		<g>
			<rect x="154.6" y="88.76" class="st5" width="9.36" height="18.73"/>
			<rect x="140.55" y="88.76" class="st5" width="9.36" height="18.73"/>
			<rect x="126.51" y="88.76" class="st5" width="9.36" height="18.73"/>
			<rect x="112.51" y="88.76" class="st5" width="9.36" height="18.73"/>
		</g>
	</g>
</g>
<polygon class="st9" points="107.5,88.06 93.82,74.91 78.37,89.06 78.37,55.54 107.5,55.54 "/>
<g>
	<path class="st5" d="M144.7,11.11h-5.13c-0.59,0-1.07,0.64-1.07,1.43V25.1c0,0.79,0.48,1.43,1.07,1.43l5.13-1.98
		c0.59,0,1.07-0.64,1.07-1.43V12.55C145.77,11.76,145.29,11.11,144.7,11.11L144.7,11.11z M144.28,23.01l-4.3,1.98V12.66h4.3V23.01z
		 M143.62,23.01"/>
	<path class="st5" d="M146.3,7.43h-8.33c-0.53,0-0.96,0.43-0.96,0.96v3.68c0,0.53,0.43,0.96,0.96,0.96h8.33
		c0.53,0,0.96-0.43,0.96-0.96V8.39C147.26,7.86,146.83,7.43,146.3,7.43L146.3,7.43z M145.34,11.11h-6.41V9.35h6.41V11.11z
		 M145.34,11.11"/>
</g>
<g>
	<path class="st5" d="M47.91,11.11h-5.13c-0.59,0-1.07,0.64-1.07,1.43V25.1c0,0.79,0.48,1.43,1.07,1.43l5.13-1.98
		c0.59,0,1.07-0.64,1.07-1.43V12.55C48.98,11.76,48.5,11.11,47.91,11.11L47.91,11.11z M47.5,23.01l-4.3,1.98V12.66h4.3V23.01z
		 M46.84,23.01"/>
	<path class="st5" d="M49.51,7.43h-8.33c-0.53,0-0.96,0.43-0.96,0.96v3.68c0,0.53,0.43,0.96,0.96,0.96h8.33
		c0.53,0,0.96-0.43,0.96-0.96V8.39C50.47,7.86,50.04,7.43,49.51,7.43L49.51,7.43z M48.55,11.11h-6.41V9.35h6.41V11.11z M48.55,11.11
		"/>
</g>
<g>
	<path class="st5" d="M155.9,119.53h-20.2v20.2h20.2V119.53z M151.86,127.61h-4.04v-4.04h4.04V127.61z M143.78,123.57v4.04h-4.04
		v-4.04H143.78z M139.74,131.65h4.04v4.04h-4.04V131.65z M147.82,135.69v-4.04h4.04v4.04H147.82z M147.82,135.69"/>
	<rect x="64.17" y="114.95" class="st11" width="56.95" height="30.25"/>
	<path class="st5" d="M145.8,118.69"/>
	<rect x="98.79" y="125" class="st4" width="13" height="20.2"/>
	<g>
		<path class="st5" d="M99.35,102.78c0-3.34-2.72-6.06-6.06-6.06c-3.34,0-6.06,2.72-6.06,6.06c0,3.34,2.72,6.06,6.06,6.06
			C96.63,108.84,99.35,106.12,99.35,102.78L99.35,102.78z M91.27,102.78c0-1.11,0.9-2.02,2.02-2.02c1.11,0,2.02,0.91,2.02,2.02
			c0,1.11-0.9,2.02-2.02,2.02C92.17,104.8,91.27,103.89,91.27,102.78L91.27,102.78z M91.27,102.78"/>
		<path class="st5" d="M79.15,137.12"/>
		<path class="st5" d="M62.99,103.96l-4.63,4.63l0,0c-0.91,0.91-1.43,2.17-1.43,3.45c0,2.69,2.19,4.88,4.88,4.88h1.18v32.32h111.08
			V55.54h3.2c2.69,0-77.77,0-75.08,0h4.2v31.24L93.29,73.67l-10.1,10.1 M170.04,145.2h-46.45v-28.28h1.18c2.4,0,4.39-1.75,4.79-4.04
			h32.4V96.72h-4.04V72.58h-36.36v24.14h-5.22l-5.9-5.9V55.54h59.59V145.2z M125.6,76.62h12.12v20.1H125.6V76.62z M141.76,76.62
			h12.12v20.1h-12.12V76.62z M157.92,100.76v8.08h-4.04v-8.08H157.92z M149.84,108.84h-4.04v-8.08h4.04V108.84z M141.76,108.84
			h-4.04v-8.08h4.04V108.84z M133.68,108.84h-4.04v-8.08h4.04V108.84z M125.6,105.98l-5.22-5.22h5.22V105.98z M111.46,145.2H99.35
			V125h12.12v8.08h-4.04v4.04h4.04V145.2z M67.03,116.92h52.51v28.28h-4.04v-24.24h-20.2v24.24H67.03V116.92z M69.89,112.88
			l23.4-23.4l23.4,23.4H69.89z M61.81,112.88c-0.46,0-0.84-0.38-0.84-0.84c0-0.22,0.09-0.44,0.25-0.59l32.07-32.07l32.07,32.07
			c0.16,0.16,0.25,0.37,0.25,0.59c0,0.46-0.38,0.84-0.84,0.84h-2.37L93.29,83.77l-29.11,29.11H61.81L61.81,112.88z M61.81,112.88"/>
		<path class="st5" d="M176.1,24.13"/>
	</g>
</g>
<rect x="75.11" y="125" class="st4" width="12.12" height="20.2"/>
<g>
	<path class="st5" d="M30.68,139.73h20.2v-20.2h-20.2V139.73z M34.71,123.57h4.04v4.04h-4.04V123.57z M46.83,123.57v4.04h-4.04
		v-4.04H46.83z M46.83,135.69h-4.04v-4.04h4.04V135.69z M34.71,135.69v-4.04h4.04v4.04H34.71z M38.75,135.69"/>
	<path class="st5" d="M40.77,118.69"/>
	<g>
		<path class="st5" d="M87.23,102.78c0,3.34,2.72,6.06,6.06,6.06c3.34,0,6.06-2.72,6.06-6.06c0-3.34-2.72-6.06-6.06-6.06
			C89.95,96.72,87.23,99.44,87.23,102.78L87.23,102.78z M95.31,102.78c0,1.11-0.9,2.02-2.02,2.02c-1.11,0-2.02-0.91-2.02-2.02
			c0-1.11,0.9-2.02,2.02-2.02C94.4,100.76,95.31,101.67,95.31,102.78L95.31,102.78z M95.31,102.78"/>
		<path class="st5" d="M107.43,137.12"/>
		<path class="st5" d="M103.39,83.77l-10.1-10.1L79.17,87.79V55.54h98.2c2.69,0,4.88-2.19,4.88-4.88c0-1.28-0.52-2.54-1.43-3.45
			l-30.16-30.16L36.83,17.23L5.85,47.22h0c-0.9,0.91-1.43,2.17-1.43,3.45c0,2.69,2.19,4.88,4.88,4.88h3.2v93.69h111.08v-32.32h1.18
			c2.69,0,4.88-2.19,4.88-4.88c0-1.28-0.52-2.54-1.43-3.45l0,0l-4.63-4.63 M16.54,55.54h58.59v36.28l-4.9,4.9h-5.22V72.58H28.66
			v24.14h-4.04v16.16h32.4c0.4,2.29,2.39,4.04,4.79,4.04h1.18v28.28H16.54V55.54z M60.97,96.72H48.85v-20.1h12.12V96.72z
			 M44.81,96.72H32.7v-20.1h12.12V96.72z M32.7,100.76v8.08h-4.04v-8.08H32.7z M36.73,100.76h4.04v8.08h-4.04V100.76z M44.81,100.76
			h4.04v8.08h-4.04V100.76z M52.89,100.76h4.04v8.08h-4.04V100.76z M60.97,100.76h5.22l-5.22,5.22V100.76z M75.11,137.12h4.04v-4.04
			h-4.04V125h12.12v20.2H75.11V137.12z M119.54,145.2H91.27v-24.24h-20.2v24.24h-4.04v-28.28h52.51V145.2z M69.89,112.88l23.4-23.4
			l23.4,23.4H69.89z M124.77,112.88h-2.37L93.29,83.77l-29.11,29.11h-2.37c-0.46,0-0.84-0.38-0.84-0.84c0-0.22,0.09-0.44,0.25-0.59
			l32.07-32.07l32.07,32.07c0.16,0.16,0.25,0.37,0.25,0.59C125.6,112.5,125.23,112.88,124.77,112.88L124.77,112.88z M124.77,112.88"
			/>
		<path class="st5" d="M10.48,24.13"/>
	</g>
</g>
<path class="st11" d="M177.12,49.67c0,0.46-0.38,0.84-0.84,0.84h-3.39H13.59H10.2c-0.46,0-0.84-0.38-0.84-0.84
	c0-0.22,1.09-1.44,1.25-1.59l27.2-26.47l110.93-0.66l28.13,28.13C177.03,49.23,177.12,49.45,177.12,49.67L177.12,49.67z"/>
<g>
	<g>
		<path class="st5" d="M57.48,53.03H33.21c-0.67,0-1.21-0.54-1.21-1.21V33.63c0-0.5,0.3-0.94,0.76-1.13l12.14-7.85
			c0.29-0.12,0.61-0.12,0.9,0l12.14,7.85c0.46,0.18,0.76,0.63,0.76,1.13v18.18C58.7,52.49,58.16,53.03,57.48,53.03z"/>
		<polygon class="st10" points="34.85,49.84 55.85,49.84 55.85,35.07 45.35,27.84 34.85,35.07 		"/>
		<polygon class="st5" points="42.92,38.31 42.92,42.59 42.92,43.17 42.92,47.45 38.06,47.45 38.06,43.17 38.06,42.59 38.06,38.31 
					"/>
		<polygon class="st4" points="52.63,38.31 52.63,42.59 52.63,43.17 52.63,47.45 47.78,47.45 47.78,43.17 47.78,42.59 47.78,38.31 
					"/>
	</g>
</g>
<g>
	<g>
		<path class="st5" d="M154.27,53.03H130c-0.67,0-1.21-0.54-1.21-1.21V33.63c0-0.5,0.3-0.94,0.76-1.13l12.14-7.85
			c0.29-0.12,0.61-0.12,0.9,0l12.14,7.85c0.46,0.18,0.76,0.63,0.76,1.13v18.18C155.49,52.49,154.94,53.03,154.27,53.03z
			 M131.63,49.84h21V35.07l-10.5-7.23l-10.5,7.23V49.84z"/>
		<polygon class="st10" points="131.85,49.84 152.85,49.84 152.85,35.07 142.35,27.84 131.85,35.07 		"/>
		<polygon class="st5" points="139.71,38.31 139.71,42.59 139.71,43.17 139.71,47.45 134.85,47.45 134.85,43.17 134.85,42.59 
			134.85,38.31 		"/>
		<polygon class="st4" points="149.42,38.31 149.42,42.59 149.42,43.17 149.42,47.45 144.56,47.45 144.56,43.17 144.56,42.59 
			144.56,38.31 		"/>
	</g>
</g>
<rect x="107.43" y="133.08" class="st10" width="4.04" height="4.04"/>
<rect x="75.11" y="133.08" class="st10" width="4.04" height="4.04"/>
</svg>
