<?xml version="1.0" encoding="utf-8"?>
<!-- Generator: Adobe Illustrator 24.1.0, SVG Export Plug-In . SVG Version: 6.00 Build 0)  -->
<svg version="1.1" id="Layer_1" xmlns="http://www.w3.org/2000/svg" xmlns:xlink="http://www.w3.org/1999/xlink" x="0px" y="0px"
	 viewBox="0 0 187.78 155.21" style="enable-background:new 0 0 187.78 155.21;" xml:space="preserve">
<style type="text/css">
	.st0{display:none;}
	.st1{display:inline;fill:#4C4A4B;}
	.st2{display:inline;fill:#E5E5E4;}
	.st3{display:inline;}
	.st4{fill:#C82128;}
	.st5{fill:#4C4A4B;}
	.st6{display:inline;fill:#C82128;}
	.st7{display:inline;fill:#CBCBCA;}
	.st8{display:inline;fill:#FFFFFF;}
	.st9{fill:#E5E5E4;}
	.st10{fill:#FFFFFF;}
	.st11{fill:#CBCBCA;}
</style>
<g class="st0">
	<path class="st1" d="M76.64,136.56h-4.2H71.4h1.36h-1.04h-0.13V75.63h6.81v-4.27h-6.81v-3.81c0-0.71-0.35-1.37-0.94-1.77l-6.1-4.15
		V46.05c0-1.18-0.96-2.14-2.14-2.14h-9.98c-1.18,0-2.14,0.96-2.14,2.14v5.9l-1.32-0.9c-0.73-0.49-1.68-0.49-2.4,0L24.88,65.78
		c-0.59,0.4-0.94,1.06-0.94,1.77v3.81h-7.86v-3.81c0-0.71-0.35-1.37-0.94-1.77l-6.38-4.33V46.05c0-1.18-0.96-2.14-2.14-2.14h-9.98
		c-1.18,0-2.14,0.96-2.14,2.14v5.72l-1.05-0.72c-0.73-0.49-1.68-0.49-2.4,0l-21.68,14.72c-0.59,0.4-0.94,1.06-0.94,1.77v3.81h-5.14
		c-1.18,0-2.14,0.96-2.14,2.14c0,1.18,0.96,2.14,2.14,2.14h5.14v60.93h-5.14c-1.18,0-2.14,0.96-2.14,2.14
		c0,1.18,0.96,2.14,2.14,2.14H76.64c1.18,0,2.14-0.96,2.14-2.14C78.78,137.52,77.82,136.56,76.64,136.56z M4.5,58.54l-5.7-3.87
		v-6.48h5.7V58.54z M23.95,136.56h-7.86V75.63h7.86V136.56z M54.57,48.19h5.7v10.54l-5.7-3.87V48.19z M52.04,136.56h-8.55v-15.68
		h8.55V136.56z M67.31,136.56H56.32v-17.82c0-1.18-0.96-2.14-2.14-2.14H41.35c-1.18,0-2.14,0.96-2.14,2.14v17.82H28.22V68.68
		l19.54-13.27l19.54,13.27V136.56z"/>
	<path class="st2" d="M0.82,136.56v-17.82c0-1.18-0.96-2.14-2.14-2.14h-12.83c-1.18,0-2.14,0.96-2.14,2.14v17.82h-10.99V68.68
		l19.54-13.27l19.54,13.27v67.88H0.82z"/>
	<g class="st3">
		<path class="st4" d="M-1.31,70.28h-12.83c-1.18,0-2.14,0.96-2.14,2.14v12.83c0,1.18,0.96,2.14,2.14,2.14h12.83
			c1.18,0,2.14-0.96,2.14-2.14V72.42C0.83,71.24-0.13,70.28-1.31,70.28L-1.31,70.28z M-3.45,83.11"/>
		<path class="st4" d="M-1.31,92.55h-12.83c-1.18,0-2.14,0.96-2.14,2.14v12.83c0,1.18,0.96,2.14,2.14,2.14h12.83
			c1.18,0,2.14-0.96,2.14-2.14V94.69C0.83,93.51-0.13,92.55-1.31,92.55L-1.31,92.55z M-3.45,105.38"/>
		<path class="st5" d="M54.18,70.28H41.35c-1.18,0-2.14,0.96-2.14,2.14v12.83c0,1.18,0.96,2.14,2.14,2.14h12.83
			c1.18,0,2.14-0.96,2.14-2.14V72.42C56.32,71.24,55.36,70.28,54.18,70.28L54.18,70.28z M52.04,83.11h-8.55v-8.55h8.55V83.11z
			 M52.04,83.11"/>
		<path class="st5" d="M54.18,92.73H41.35c-1.18,0-2.14,0.96-2.14,2.14v12.83c0,1.18,0.96,2.14,2.14,2.14h12.83
			c1.18,0,2.14-0.96,2.14-2.14V94.87C56.32,93.69,55.36,92.73,54.18,92.73L54.18,92.73z M52.04,105.56h-8.55v-8.55h8.55V105.56z
			 M52.04,105.56"/>
	</g>
	<rect x="-12" y="120.88" class="st6" width="8.55" height="15.68"/>
	<rect x="43.49" y="120.88" class="st7" width="8.55" height="15.68"/>
	<circle class="st8" cx="-5.15" cy="128.82" r="0.7"/>
	<circle class="st1" cx="50.53" cy="128.82" r="0.7"/>
</g>
<g class="st0">
	<g class="st3">
		<path class="st5" d="M99.69,139.39V20.7c0-0.8,0.65-1.45,1.45-1.45h74.21c0.8,0,1.45,0.65,1.45,1.45v118.68
			c0,0.8-0.65,1.45-1.45,1.45h-74.21C100.34,140.83,99.69,140.19,99.69,139.39z M172.58,23.44H103.9v113.21h68.69V23.44z"/>
		<path class="st5" d="M173.06,139.39V46.75c0-0.8,0.65-1.45,1.45-1.45h46.32c0.8,0,1.45,0.65,1.45,1.45v92.63
			c0,0.8-0.65,1.45-1.45,1.45h-46.32C173.71,140.83,173.06,140.19,173.06,139.39z"/>
		<rect x="176.87" y="48.93" class="st9" width="41.6" height="88.1"/>
		<path class="st5" d="M173.06,58.33V46.75c0-0.8,0.65-1.45,1.45-1.45h46.32c0.8,0,1.45,0.65,1.45,1.45v11.58
			c0,0.8-0.65,1.45-1.45,1.45h-46.32C173.71,59.78,173.06,59.13,173.06,58.33z"/>
		<path class="st5" d="M108.78,21.97V10.4c0-0.8,0.71-1.45,1.59-1.45h54.06c0.88,0,1.59,0.65,1.59,1.45v11.58
			c0,0.8-0.71,1.45-1.59,1.45h-54.06C109.49,23.42,108.78,22.77,108.78,21.97z"/>
		<path class="st5" d="M186.09,48.2c1.05,0,1.91-0.65,1.91-1.45V23.6c0-0.8-0.85-1.45-1.91-1.45c-1.05,0-1.91,0.65-1.91,1.45v23.16
			C184.18,47.55,185.03,48.2,186.09,48.2z"/>
		<path class="st5" d="M197.67,48.2c1.05,0,1.91-0.65,1.91-1.45V32.28c0-0.8-0.85-1.45-1.91-1.45c-1.05,0-1.91,0.65-1.91,1.45v14.47
			C195.76,47.55,196.61,48.2,197.67,48.2z"/>
		<path class="st5" d="M209.25,48.2c1.05,0,1.91-0.65,1.91-1.45V17.81c0-0.8-0.85-1.45-1.91-1.45c-1.05,0-1.91,0.65-1.91,1.45v28.95
			C207.34,47.55,208.19,48.2,209.25,48.2z"/>
		<path class="st5" d="M117.84,139.39v-17.37c0-0.8,0.65-1.45,1.45-1.45h38.77c0.8,0,1.45,0.65,1.45,1.45v17.37
			c0,0.8-0.65,1.45-1.45,1.45h-38.77C118.49,140.83,117.84,140.19,117.84,139.39z M152.99,124.79H132v11.83h20.99V124.79z"/>
		<path class="st5" d="M203.46,77.15h5.79c0.8,0,1.45-0.65,1.45-1.45v-8.68c0-0.8-0.65-1.45-1.45-1.45c-0.8,0-1.45,0.65-1.45,1.45
			v7.24h-4.34c-0.8,0-1.45,0.65-1.45,1.45C202.01,76.5,202.66,77.15,203.46,77.15z"/>
		<path class="st5" d="M186.09,77.15h5.79c0.8,0,1.45-0.65,1.45-1.45v-8.68c0-0.8-0.65-1.45-1.45-1.45c-0.8,0-1.45,0.65-1.45,1.45
			v7.24h-4.34c-0.8,0-1.45,0.65-1.45,1.45C184.64,76.5,185.29,77.15,186.09,77.15z"/>
		<path class="st5" d="M203.46,94.52h5.79c0.8,0,1.45-0.65,1.45-1.45v-8.68c0-0.8-0.65-1.45-1.45-1.45c-0.8,0-1.45,0.65-1.45,1.45
			v7.24h-4.34c-0.8,0-1.45,0.65-1.45,1.45C202.01,93.87,202.66,94.52,203.46,94.52z"/>
		<path class="st5" d="M186.09,94.52h5.79c0.8,0,1.45-0.65,1.45-1.45v-8.68c0-0.8-0.65-1.45-1.45-1.45c-0.8,0-1.45,0.65-1.45,1.45
			v7.24h-4.34c-0.8,0-1.45,0.65-1.45,1.45C184.64,93.87,185.29,94.52,186.09,94.52z"/>
		<path class="st5" d="M203.46,111.89h5.79c0.8,0,1.45-0.65,1.45-1.45v-8.68c0-0.8-0.65-1.45-1.45-1.45c-0.8,0-1.45,0.65-1.45,1.45
			v7.24h-4.34c-0.8,0-1.45,0.65-1.45,1.45C202.01,111.24,202.66,111.89,203.46,111.89z"/>
		<path class="st5" d="M186.09,111.89h5.79c0.8,0,1.45-0.65,1.45-1.45v-8.68c0-0.8-0.65-1.45-1.45-1.45c-0.8,0-1.45,0.65-1.45,1.45
			v7.24h-4.34c-0.8,0-1.45,0.65-1.45,1.45C184.64,111.24,185.29,111.89,186.09,111.89z"/>
		<path class="st5" d="M95.78,140.74h132.11c0.8,0,1.45-0.92,1.45-2.06c0-1.14-0.65-2.06-1.45-2.06H95.78
			c-0.8,0-1.45,0.92-1.45,2.06C94.33,139.82,94.98,140.74,95.78,140.74z"/>
		<rect x="113.24" y="13" class="st9" width="48.34" height="6.36"/>
		<rect x="176.7" y="48.93" class="st10" width="41.94" height="7.24"/>
		<rect x="121.82" y="124.79" class="st11" width="33.71" height="11.83"/>
		<g>
			<rect x="154.6" y="32.79" class="st5" width="9.36" height="18.73"/>
			<rect x="140.55" y="32.79" class="st5" width="9.36" height="18.73"/>
			<rect x="126.51" y="32.79" class="st5" width="9.36" height="18.73"/>
			<rect x="154.6" y="60.89" class="st5" width="9.36" height="18.73"/>
			<rect x="140.55" y="60.89" class="st4" width="9.36" height="18.73"/>
			<rect x="126.51" y="60.89" class="st5" width="9.36" height="18.73"/>
			<rect x="112.51" y="32.79" class="st5" width="9.36" height="18.73"/>
			<rect x="112.51" y="60.89" class="st5" width="9.36" height="18.73"/>
		</g>
		<g>
			<rect x="154.6" y="88.76" class="st5" width="9.36" height="18.73"/>
			<rect x="140.55" y="88.76" class="st5" width="9.36" height="18.73"/>
			<rect x="126.51" y="88.76" class="st5" width="9.36" height="18.73"/>
			<rect x="112.51" y="88.76" class="st5" width="9.36" height="18.73"/>
		</g>
	</g>
</g>
<g class="st0">
	<g class="st3">
		<path class="st5" d="M141.05,130.17H82.71c-0.63,0-1.14-0.51-1.14-1.14v-93.3c0-0.63,0.51-1.14,1.14-1.14h58.34
			c0.63,0,1.14,0.51,1.14,1.14v93.31C142.19,129.67,141.68,130.17,141.05,130.17z M84.88,126.88h54v-89h-54V126.88z"/>
		<path class="st5" d="M83.37,130.17H46.96c-0.63,0-1.14-0.51-1.14-1.14V56.21c0-0.63,0.51-1.14,1.14-1.14h36.41
			c0.63,0,1.14,0.51,1.14,1.14v72.82C84.51,129.67,84,130.17,83.37,130.17z"/>
		<rect x="48.81" y="57.92" class="st9" width="32.7" height="69.26"/>
		<path class="st5" d="M83.37,66.45H46.96c-0.63,0-1.14-0.51-1.14-1.14v-9.1c0-0.63,0.51-1.14,1.14-1.14h36.41
			c0.63,0,1.14,0.51,1.14,1.14v9.1C84.51,65.95,84,66.45,83.37,66.45z"/>
		<path class="st5" d="M133.79,37.87h-42.5c-0.69,0-1.25-0.51-1.25-1.14v-9.1c0-0.63,0.56-1.14,1.25-1.14h42.5
			c0.69,0,1.25,0.51,1.25,1.14v9.1C135.04,37.36,134.48,37.87,133.79,37.87z"/>
		<path class="st5" d="M74.27,57.35c-0.83,0-1.5-0.51-1.5-1.14V38.01c0-0.63,0.67-1.14,1.5-1.14c0.83,0,1.5,0.51,1.5,1.14v18.21
			C75.77,56.84,75.09,57.35,74.27,57.35z"/>
		<path class="st5" d="M65.16,57.35c-0.83,0-1.5-0.51-1.5-1.14V44.84c0-0.63,0.67-1.14,1.5-1.14c0.83,0,1.5,0.51,1.5,1.14v11.38
			C66.66,56.84,65.99,57.35,65.16,57.35z"/>
		<path class="st5" d="M56.06,57.35c-0.83,0-1.5-0.51-1.5-1.14V33.46c0-0.63,0.67-1.14,1.5-1.14c0.83,0,1.5,0.51,1.5,1.14v22.76
			C57.56,56.84,56.89,57.35,56.06,57.35z"/>
		<path class="st5" d="M126.78,130.17H96.3c-0.63,0-1.14-0.51-1.14-1.14v-13.65c0-0.63,0.51-1.14,1.14-1.14h30.48
			c0.63,0,1.14,0.51,1.14,1.14v13.65C127.92,129.67,127.41,130.17,126.78,130.17z M100.29,126.86h16.5v-9.3h-16.5V126.86z"/>
		<path class="st5" d="M60.61,80.11h-4.55c-0.63,0-1.14-0.51-1.14-1.14v-6.83c0-0.63,0.51-1.14,1.14-1.14
			c0.63,0,1.14,0.51,1.14,1.14v5.69h3.41c0.63,0,1.14,0.51,1.14,1.14C61.75,79.6,61.24,80.11,60.61,80.11z"/>
		<path class="st5" d="M74.27,80.11h-4.55c-0.63,0-1.14-0.51-1.14-1.14v-6.83c0-0.63,0.51-1.14,1.14-1.14
			c0.63,0,1.14,0.51,1.14,1.14v5.69h3.41c0.63,0,1.14,0.51,1.14,1.14C75.4,79.6,74.89,80.11,74.27,80.11z"/>
		<path class="st5" d="M60.61,93.76h-4.55c-0.63,0-1.14-0.51-1.14-1.14V85.8c0-0.63,0.51-1.14,1.14-1.14c0.63,0,1.14,0.51,1.14,1.14
			v5.69h3.41c0.63,0,1.14,0.51,1.14,1.14C61.75,93.25,61.24,93.76,60.61,93.76z"/>
		<path class="st5" d="M74.27,93.76h-4.55c-0.63,0-1.14-0.51-1.14-1.14V85.8c0-0.63,0.51-1.14,1.14-1.14c0.63,0,1.14,0.51,1.14,1.14
			v5.69h3.41c0.63,0,1.14,0.51,1.14,1.14C75.4,93.25,74.89,93.76,74.27,93.76z"/>
		<path class="st5" d="M60.61,107.42h-4.55c-0.63,0-1.14-0.51-1.14-1.14v-6.83c0-0.63,0.51-1.14,1.14-1.14
			c0.63,0,1.14,0.51,1.14,1.14v5.69h3.41c0.63,0,1.14,0.51,1.14,1.14S61.24,107.42,60.61,107.42z"/>
		<path class="st5" d="M74.27,107.42h-4.55c-0.63,0-1.14-0.51-1.14-1.14v-6.83c0-0.63,0.51-1.14,1.14-1.14
			c0.63,0,1.14,0.51,1.14,1.14v5.69h3.41c0.63,0,1.14,0.51,1.14,1.14S74.89,107.42,74.27,107.42z"/>
		<path class="st5" d="M145.26,130.1H41.4c-0.63,0-1.14-0.73-1.14-1.62c0-0.89,0.51-1.62,1.14-1.62h103.86
			c0.63,0,1.14,0.73,1.14,1.62C146.4,129.37,145.89,130.1,145.26,130.1z"/>
		<rect x="93.54" y="29.68" class="st9" width="38" height="5"/>
		<rect x="48.68" y="57.92" class="st10" width="32.97" height="5.69"/>
		<rect x="98.29" y="117.56" class="st11" width="26.5" height="9.3"/>
		<g>
			<rect x="91.66" y="45.24" class="st5" width="7.36" height="14.72"/>
			<rect x="102.7" y="45.24" class="st5" width="7.36" height="14.72"/>
			<rect x="113.74" y="45.24" class="st5" width="7.36" height="14.72"/>
			<rect x="91.66" y="67.32" class="st5" width="7.36" height="14.73"/>
			<rect x="102.7" y="67.32" class="st4" width="7.36" height="14.73"/>
			<rect x="113.74" y="67.32" class="st5" width="7.36" height="14.73"/>
			<rect x="124.74" y="45.24" class="st5" width="7.36" height="14.72"/>
			<rect x="124.74" y="67.32" class="st5" width="7.36" height="14.73"/>
		</g>
		<g>
			<rect x="91.66" y="89.24" class="st5" width="7.36" height="14.72"/>
			<rect x="102.7" y="89.24" class="st5" width="7.36" height="14.72"/>
			<rect x="113.74" y="89.24" class="st5" width="7.36" height="14.72"/>
			<rect x="124.74" y="89.24" class="st5" width="7.36" height="14.72"/>
		</g>
	</g>
</g>
<g>
	<g>
		<path class="st5" d="M159.84,150.21H78.1c-0.88,0-1.59-0.71-1.59-1.59V17.89c0-0.88,0.71-1.59,1.59-1.59h81.74
			c0.88,0,1.59,0.71,1.59,1.59v130.72C161.44,149.5,160.72,150.21,159.84,150.21z M81.15,145.6h75.65V20.91H81.15V145.6z"/>
		<path class="st5" d="M79.03,150.21H28.01c-0.88,0-1.59-0.71-1.59-1.59V46.59c0-0.88,0.71-1.59,1.59-1.59h51.01
			c0.88,0,1.59,0.71,1.59,1.59v102.03C80.62,149.5,79.91,150.21,79.03,150.21z"/>
		<rect x="30.61" y="48.98" class="st9" width="45.82" height="97.03"/>
		<path class="st5" d="M79.03,60.94H28.01c-0.88,0-1.59-0.71-1.59-1.59V46.59c0-0.88,0.71-1.59,1.59-1.59h51.01
			c0.88,0,1.59,0.71,1.59,1.59v12.75C80.62,60.22,79.91,60.94,79.03,60.94z"/>
		<path class="st5" d="M149.67,20.89H90.12c-0.97,0-1.75-0.71-1.75-1.59V6.54c0-0.88,0.78-1.59,1.75-1.59h59.54
			c0.97,0,1.75,0.71,1.75,1.59V19.3C151.42,20.18,150.63,20.89,149.67,20.89z"/>
		<path class="st5" d="M66.27,48.18c-1.16,0-2.1-0.71-2.1-1.59V21.08c0-0.88,0.94-1.59,2.1-1.59c1.16,0,2.1,0.71,2.1,1.59v25.51
			C68.37,47.47,67.43,48.18,66.27,48.18z"/>
		<path class="st5" d="M53.52,48.18c-1.16,0-2.1-0.71-2.1-1.59V30.65c0-0.88,0.94-1.59,2.1-1.59c1.16,0,2.1,0.71,2.1,1.59v15.94
			C55.62,47.47,54.68,48.18,53.52,48.18z"/>
		<path class="st5" d="M40.77,48.18c-1.16,0-2.1-0.71-2.1-1.59V14.71c0-0.88,0.94-1.59,2.1-1.59c1.16,0,2.1,0.71,2.1,1.59v31.88
			C42.87,47.47,41.93,48.18,40.77,48.18z"/>
		<path class="st5" d="M139.85,150.21h-42.7c-0.88,0-1.59-0.71-1.59-1.59v-19.13c0-0.88,0.71-1.59,1.59-1.59h42.7
			c0.88,0,1.59,0.71,1.59,1.59v19.13C141.44,149.5,140.73,150.21,139.85,150.21z M102.73,145.57h23.12v-13.03h-23.12V145.57z"/>
		<path class="st5" d="M47.14,80.07h-6.38c-0.88,0-1.59-0.71-1.59-1.59v-9.56c0-0.88,0.71-1.59,1.59-1.59
			c0.88,0,1.59,0.71,1.59,1.59v7.97h4.78c0.88,0,1.59,0.71,1.59,1.59C48.74,79.35,48.02,80.07,47.14,80.07z"/>
		<path class="st5" d="M66.27,80.07H59.9c-0.88,0-1.59-0.71-1.59-1.59v-9.56c0-0.88,0.71-1.59,1.59-1.59c0.88,0,1.59,0.71,1.59,1.59
			v7.97h4.78c0.88,0,1.59,0.71,1.59,1.59C67.87,79.35,67.15,80.07,66.27,80.07z"/>
		<path class="st5" d="M47.14,99.2h-6.38c-0.88,0-1.59-0.71-1.59-1.59v-9.57c0-0.88,0.71-1.59,1.59-1.59c0.88,0,1.59,0.71,1.59,1.59
			v7.97h4.78c0.88,0,1.59,0.71,1.59,1.59C48.74,98.48,48.02,99.2,47.14,99.2z"/>
		<path class="st5" d="M66.27,99.2H59.9c-0.88,0-1.59-0.71-1.59-1.59v-9.57c0-0.88,0.71-1.59,1.59-1.59c0.88,0,1.59,0.71,1.59,1.59
			v7.97h4.78c0.88,0,1.59,0.71,1.59,1.59C67.87,98.48,67.15,99.2,66.27,99.2z"/>
		<path class="st5" d="M47.14,118.33h-6.38c-0.88,0-1.59-0.71-1.59-1.59v-9.57c0-0.88,0.71-1.59,1.59-1.59
			c0.88,0,1.59,0.71,1.59,1.59v7.97h4.78c0.88,0,1.59,0.71,1.59,1.59C48.74,117.61,48.02,118.33,47.14,118.33z"/>
		<path class="st5" d="M66.27,118.33H59.9c-0.88,0-1.59-0.71-1.59-1.59v-9.57c0-0.88,0.71-1.59,1.59-1.59
			c0.88,0,1.59,0.71,1.59,1.59v7.97h4.78c0.88,0,1.59,0.71,1.59,1.59C67.87,117.61,67.15,118.33,66.27,118.33z"/>
		<path class="st5" d="M165.74,150.1H20.24c-0.88,0-1.59-1.02-1.59-2.27c0-1.25,0.71-2.27,1.59-2.27h145.5
			c0.88,0,1.59,1.02,1.59,2.27C167.33,149.09,166.62,150.1,165.74,150.1z"/>
		<rect x="93.28" y="9.42" class="st9" width="53.24" height="7.01"/>
		<rect x="30.42" y="48.98" class="st10" width="46.19" height="7.97"/>
		<rect x="99.93" y="132.54" class="st11" width="37.13" height="13.03"/>
		<g>
			<rect x="90.64" y="31.21" class="st5" width="10.31" height="20.63"/>
			<rect x="106.11" y="31.21" class="st5" width="10.31" height="20.63"/>
			<rect x="121.58" y="31.21" class="st5" width="10.31" height="20.63"/>
			<rect x="90.64" y="62.16" class="st5" width="10.31" height="20.63"/>
			<rect x="106.11" y="62.16" class="st4" width="10.31" height="20.63"/>
			<rect x="121.58" y="62.16" class="st5" width="10.31" height="20.63"/>
			<rect x="136.99" y="31.21" class="st5" width="10.31" height="20.63"/>
			<rect x="136.99" y="62.16" class="st5" width="10.31" height="20.63"/>
		</g>
		<g>
			<rect x="90.64" y="92.86" class="st5" width="10.31" height="20.63"/>
			<rect x="106.11" y="92.86" class="st5" width="10.31" height="20.63"/>
			<rect x="121.58" y="92.86" class="st5" width="10.31" height="20.63"/>
			<rect x="136.99" y="92.86" class="st5" width="10.31" height="20.63"/>
		</g>
	</g>
</g>
</svg>
