<?xml version="1.0" encoding="utf-8"?>
<!-- Generator: Adobe Illustrator 24.1.3, SVG Export Plug-In . SVG Version: 6.00 Build 0)  -->
<svg version="1.1" id="Forma_1_1_" xmlns="http://www.w3.org/2000/svg" xmlns:xlink="http://www.w3.org/1999/xlink" x="0px" y="0px"
	 viewBox="0 0 70 51" style="enable-background:new 0 0 70 51;" xml:space="preserve">
<style type="text/css">
	.st0{fill-rule:evenodd;clip-rule:evenodd;fill:#B22234;}
</style>
<g id="Forma_1">
	<g>
		<path class="st0" d="M56.8,14.56c-2.14-2.68-5.05-4.8-8.74-6.36C44.36,6.64,40.34,5.86,36,5.86c-4.34,0-8.36,0.78-12.05,2.34
			c-3.69,1.56-6.61,3.68-8.74,6.36c-2.14,2.68-3.2,5.6-3.2,8.76c0,2.7,0.81,5.25,2.42,7.64c1.61,2.39,3.83,4.4,6.65,6.03
			c-0.23,0.55-0.46,1.05-0.7,1.5c-0.24,0.45-0.52,0.89-0.85,1.31c-0.33,0.42-0.58,0.75-0.77,0.99c-0.18,0.24-0.48,0.57-0.89,1.01
			c-0.41,0.43-0.67,0.72-0.78,0.85c0-0.02-0.05,0.03-0.14,0.15c-0.09,0.13-0.14,0.18-0.15,0.17c-0.01-0.01-0.06,0.04-0.14,0.17
			c-0.08,0.13-0.12,0.19-0.12,0.19l-0.09,0.17c-0.03,0.07-0.06,0.14-0.07,0.2c-0.01,0.07-0.02,0.14-0.02,0.22
			c0,0.08,0.01,0.15,0.03,0.22c0.05,0.3,0.18,0.53,0.39,0.72c0.22,0.18,0.45,0.27,0.7,0.27h0.1c1.14-0.16,2.11-0.34,2.93-0.55
			c3.5-0.91,6.66-2.36,9.48-4.36c2.05,0.36,4.05,0.55,6,0.55c4.34,0,8.36-0.78,12.05-2.33c3.69-1.56,6.61-3.68,8.74-6.36
			c2.14-2.68,3.2-5.6,3.2-8.76C60,20.16,58.93,17.24,56.8,14.56z"/>
	</g>
</g>
</svg>
