<?xml version="1.0" encoding="utf-8"?>
<!-- Generator: Adobe Illustrator 24.1.0, SVG Export Plug-In . SVG Version: 6.00 Build 0)  -->
<svg version="1.1" id="Layer_1" xmlns="http://www.w3.org/2000/svg" xmlns:xlink="http://www.w3.org/1999/xlink" x="0px" y="0px"
	 viewBox="0 0 217.78 155.21" style="enable-background:new 0 0 217.78 155.21;" xml:space="preserve">
<style type="text/css">
	.st0{display:none;}
	.st1{display:inline;fill:#4C4A4B;}
	.st2{display:inline;fill:#E5E5E4;}
	.st3{display:inline;}
	.st4{fill:#C82128;}
	.st5{fill:#4C4A4B;}
	.st6{display:inline;fill:#C82128;}
	.st7{display:inline;fill:#CBCBCA;}
	.st8{display:inline;fill:#FFFFFF;}
	.st9{fill:#E5E5E4;}
	.st10{fill:#FFFFFF;}
	.st11{fill:#CBCBCA;}
	.st12{display:none;fill:#C82128;}
	.st13{fill:none;}
	.st14{fill:#FFFFFF;stroke:#4C4A4C;stroke-miterlimit:10;}
</style>
<g class="st0">
	<path class="st1" d="M94.42,136.56h-4.2h-1.04h1.36h-1.04h-0.13V75.63h6.81v-4.27h-6.81v-3.81c0-0.71-0.35-1.37-0.94-1.77
		l-6.1-4.15V46.05c0-1.18-0.96-2.14-2.14-2.14H70.2c-1.18,0-2.14,0.96-2.14,2.14v5.9l-1.32-0.9c-0.73-0.49-1.68-0.49-2.4,0
		L42.66,65.78c-0.59,0.4-0.94,1.06-0.94,1.77v3.81h-7.86v-3.81c0-0.71-0.35-1.37-0.94-1.77l-6.38-4.33V46.05
		c0-1.18-0.96-2.14-2.14-2.14h-9.98c-1.18,0-2.14,0.96-2.14,2.14v5.72l-1.05-0.72c-0.73-0.49-1.68-0.49-2.4,0l-21.68,14.72
		c-0.59,0.4-0.94,1.06-0.94,1.77v3.81h-5.14c-1.18,0-2.14,0.96-2.14,2.14c0,1.18,0.96,2.14,2.14,2.14h5.14v60.93h-5.14
		c-1.18,0-2.14,0.96-2.14,2.14c0,1.18,0.96,2.14,2.14,2.14H94.42c1.18,0,2.14-0.96,2.14-2.14C96.56,137.52,95.6,136.56,94.42,136.56
		z M22.28,58.54l-5.7-3.87v-6.48h5.7V58.54z M41.72,136.56h-7.86V75.63h7.86V136.56z M72.34,48.19h5.7v10.54l-5.7-3.87V48.19z
		 M69.82,136.56h-8.55v-15.68h8.55V136.56z M85.09,136.56H74.09v-17.82c0-1.18-0.96-2.14-2.14-2.14H59.13
		c-1.18,0-2.14,0.96-2.14,2.14v17.82H46V68.68l19.54-13.27l19.54,13.27V136.56z"/>
	<path class="st2" d="M18.6,136.56v-17.82c0-1.18-0.96-2.14-2.14-2.14H3.64c-1.18,0-2.14,0.96-2.14,2.14v17.82H-9.49V68.68
		l19.54-13.27l19.54,13.27v67.88H18.6z"/>
	<g class="st3">
		<path class="st4" d="M16.46,70.28H3.64c-1.18,0-2.14,0.96-2.14,2.14v12.83c0,1.18,0.96,2.14,2.14,2.14h12.83
			c1.18,0,2.14-0.96,2.14-2.14V72.42C18.6,71.24,17.65,70.28,16.46,70.28L16.46,70.28z M14.33,83.11"/>
		<path class="st4" d="M16.46,92.55H3.64c-1.18,0-2.14,0.96-2.14,2.14v12.83c0,1.18,0.96,2.14,2.14,2.14h12.83
			c1.18,0,2.14-0.96,2.14-2.14V94.69C18.6,93.51,17.65,92.55,16.46,92.55L16.46,92.55z M14.33,105.38"/>
		<path class="st5" d="M71.96,70.28H59.13c-1.18,0-2.14,0.96-2.14,2.14v12.83c0,1.18,0.96,2.14,2.14,2.14h12.83
			c1.18,0,2.14-0.96,2.14-2.14V72.42C74.09,71.24,73.14,70.28,71.96,70.28L71.96,70.28z M69.82,83.11h-8.55v-8.55h8.55V83.11z
			 M69.82,83.11"/>
		<path class="st5" d="M71.96,92.73H59.13c-1.18,0-2.14,0.96-2.14,2.14v12.83c0,1.18,0.96,2.14,2.14,2.14h12.83
			c1.18,0,2.14-0.96,2.14-2.14V94.87C74.09,93.69,73.14,92.73,71.96,92.73L71.96,92.73z M69.82,105.56h-8.55v-8.55h8.55V105.56z
			 M69.82,105.56"/>
	</g>
	<rect x="5.77" y="120.88" class="st6" width="8.55" height="15.68"/>
	<rect x="61.27" y="120.88" class="st7" width="8.55" height="15.68"/>
	<circle class="st8" cx="12.63" cy="128.82" r="0.7"/>
	<circle class="st1" cx="68.3" cy="128.82" r="0.7"/>
</g>
<g class="st0">
	<g class="st3">
		<path class="st5" d="M117.47,139.39V20.7c0-0.8,0.65-1.45,1.45-1.45h74.21c0.8,0,1.45,0.65,1.45,1.45v118.68
			c0,0.8-0.65,1.45-1.45,1.45h-74.21C118.11,140.83,117.47,140.19,117.47,139.39z M190.36,23.44h-68.69v113.21h68.69V23.44z"/>
		<path class="st5" d="M190.84,139.39V46.75c0-0.8,0.65-1.45,1.45-1.45h46.32c0.8,0,1.45,0.65,1.45,1.45v92.63
			c0,0.8-0.65,1.45-1.45,1.45h-46.32C191.49,140.83,190.84,140.19,190.84,139.39z"/>
		<rect x="194.65" y="48.93" class="st9" width="41.6" height="88.1"/>
		<path class="st5" d="M190.84,58.33V46.75c0-0.8,0.65-1.45,1.45-1.45h46.32c0.8,0,1.45,0.65,1.45,1.45v11.58
			c0,0.8-0.65,1.45-1.45,1.45h-46.32C191.49,59.78,190.84,59.13,190.84,58.33z"/>
		<path class="st5" d="M126.56,21.97V10.4c0-0.8,0.71-1.45,1.59-1.45h54.06c0.88,0,1.59,0.65,1.59,1.45v11.58
			c0,0.8-0.71,1.45-1.59,1.45h-54.06C127.27,23.42,126.56,22.77,126.56,21.97z"/>
		<path class="st5" d="M203.87,48.2c1.05,0,1.91-0.65,1.91-1.45V23.6c0-0.8-0.85-1.45-1.91-1.45c-1.05,0-1.91,0.65-1.91,1.45v23.16
			C201.96,47.55,202.81,48.2,203.87,48.2z"/>
		<path class="st5" d="M215.44,48.2c1.05,0,1.91-0.65,1.91-1.45V32.28c0-0.8-0.85-1.45-1.91-1.45c-1.05,0-1.91,0.65-1.91,1.45v14.47
			C213.54,47.55,214.39,48.2,215.44,48.2z"/>
		<path class="st5" d="M227.02,48.2c1.05,0,1.91-0.65,1.91-1.45V17.81c0-0.8-0.85-1.45-1.91-1.45c-1.05,0-1.91,0.65-1.91,1.45v28.95
			C225.12,47.55,225.97,48.2,227.02,48.2z"/>
		<path class="st5" d="M135.62,139.39v-17.37c0-0.8,0.65-1.45,1.45-1.45h38.77c0.8,0,1.45,0.65,1.45,1.45v17.37
			c0,0.8-0.65,1.45-1.45,1.45h-38.77C136.27,140.83,135.62,140.19,135.62,139.39z M170.76,124.79h-20.99v11.83h20.99V124.79z"/>
		<path class="st5" d="M221.23,77.15h5.79c0.8,0,1.45-0.65,1.45-1.45v-8.68c0-0.8-0.65-1.45-1.45-1.45c-0.8,0-1.45,0.65-1.45,1.45
			v7.24h-4.34c-0.8,0-1.45,0.65-1.45,1.45C219.79,76.5,220.43,77.15,221.23,77.15z"/>
		<path class="st5" d="M203.87,77.15h5.79c0.8,0,1.45-0.65,1.45-1.45v-8.68c0-0.8-0.65-1.45-1.45-1.45c-0.8,0-1.45,0.65-1.45,1.45
			v7.24h-4.34c-0.8,0-1.45,0.65-1.45,1.45C202.42,76.5,203.07,77.15,203.87,77.15z"/>
		<path class="st5" d="M221.23,94.52h5.79c0.8,0,1.45-0.65,1.45-1.45v-8.68c0-0.8-0.65-1.45-1.45-1.45c-0.8,0-1.45,0.65-1.45,1.45
			v7.24h-4.34c-0.8,0-1.45,0.65-1.45,1.45C219.79,93.87,220.43,94.52,221.23,94.52z"/>
		<path class="st5" d="M203.87,94.52h5.79c0.8,0,1.45-0.65,1.45-1.45v-8.68c0-0.8-0.65-1.45-1.45-1.45c-0.8,0-1.45,0.65-1.45,1.45
			v7.24h-4.34c-0.8,0-1.45,0.65-1.45,1.45C202.42,93.87,203.07,94.52,203.87,94.52z"/>
		<path class="st5" d="M221.23,111.89h5.79c0.8,0,1.45-0.65,1.45-1.45v-8.68c0-0.8-0.65-1.45-1.45-1.45c-0.8,0-1.45,0.65-1.45,1.45
			v7.24h-4.34c-0.8,0-1.45,0.65-1.45,1.45C219.79,111.24,220.43,111.89,221.23,111.89z"/>
		<path class="st5" d="M203.87,111.89h5.79c0.8,0,1.45-0.65,1.45-1.45v-8.68c0-0.8-0.65-1.45-1.45-1.45c-0.8,0-1.45,0.65-1.45,1.45
			v7.24h-4.34c-0.8,0-1.45,0.65-1.45,1.45C202.42,111.24,203.07,111.89,203.87,111.89z"/>
		<path class="st5" d="M113.56,140.74h132.11c0.8,0,1.45-0.92,1.45-2.06c0-1.14-0.65-2.06-1.45-2.06H113.56
			c-0.8,0-1.45,0.92-1.45,2.06C112.11,139.82,112.76,140.74,113.56,140.74z"/>
		<rect x="131.01" y="13" class="st9" width="48.34" height="6.36"/>
		<rect x="194.48" y="48.93" class="st10" width="41.94" height="7.24"/>
		<rect x="139.6" y="124.79" class="st11" width="33.71" height="11.83"/>
		<g>
			<rect x="172.38" y="32.79" class="st5" width="9.36" height="18.73"/>
			<rect x="158.33" y="32.79" class="st5" width="9.36" height="18.73"/>
			<rect x="144.28" y="32.79" class="st5" width="9.36" height="18.73"/>
			<rect x="172.38" y="60.89" class="st5" width="9.36" height="18.73"/>
			<rect x="158.33" y="60.89" class="st4" width="9.36" height="18.73"/>
			<rect x="144.28" y="60.89" class="st5" width="9.36" height="18.73"/>
			<rect x="130.29" y="32.79" class="st5" width="9.36" height="18.73"/>
			<rect x="130.29" y="60.89" class="st5" width="9.36" height="18.73"/>
		</g>
		<g>
			<rect x="172.38" y="88.76" class="st5" width="9.36" height="18.73"/>
			<rect x="158.33" y="88.76" class="st5" width="9.36" height="18.73"/>
			<rect x="144.28" y="88.76" class="st5" width="9.36" height="18.73"/>
			<rect x="130.29" y="88.76" class="st5" width="9.36" height="18.73"/>
		</g>
	</g>
</g>
<g class="st0">
	<g class="st3">
		<path class="st5" d="M158.83,130.17h-58.34c-0.63,0-1.14-0.51-1.14-1.14v-93.3c0-0.63,0.51-1.14,1.14-1.14h58.34
			c0.63,0,1.14,0.51,1.14,1.14v93.31C159.97,129.67,159.46,130.17,158.83,130.17z M102.66,126.88h54v-89h-54V126.88z"/>
		<path class="st5" d="M101.15,130.17H64.73c-0.63,0-1.14-0.51-1.14-1.14V56.21c0-0.63,0.51-1.14,1.14-1.14h36.41
			c0.63,0,1.14,0.51,1.14,1.14v72.82C102.28,129.67,101.77,130.17,101.15,130.17z"/>
		<rect x="66.59" y="57.92" class="st9" width="32.7" height="69.26"/>
		<path class="st5" d="M101.15,66.45H64.73c-0.63,0-1.14-0.51-1.14-1.14v-9.1c0-0.63,0.51-1.14,1.14-1.14h36.41
			c0.63,0,1.14,0.51,1.14,1.14v9.1C102.28,65.95,101.77,66.45,101.15,66.45z"/>
		<path class="st5" d="M151.57,37.87h-42.5c-0.69,0-1.25-0.51-1.25-1.14v-9.1c0-0.63,0.56-1.14,1.25-1.14h42.5
			c0.69,0,1.25,0.51,1.25,1.14v9.1C152.82,37.36,152.26,37.87,151.57,37.87z"/>
		<path class="st5" d="M92.04,57.35c-0.83,0-1.5-0.51-1.5-1.14V38.01c0-0.63,0.67-1.14,1.5-1.14c0.83,0,1.5,0.51,1.5,1.14v18.21
			C93.54,56.84,92.87,57.35,92.04,57.35z"/>
		<path class="st5" d="M82.94,57.35c-0.83,0-1.5-0.51-1.5-1.14V44.84c0-0.63,0.67-1.14,1.5-1.14c0.83,0,1.5,0.51,1.5,1.14v11.38
			C84.44,56.84,83.77,57.35,82.94,57.35z"/>
		<path class="st5" d="M73.84,57.35c-0.83,0-1.5-0.51-1.5-1.14V33.46c0-0.63,0.67-1.14,1.5-1.14c0.83,0,1.5,0.51,1.5,1.14v22.76
			C75.34,56.84,74.67,57.35,73.84,57.35z"/>
		<path class="st5" d="M144.56,130.17h-30.48c-0.63,0-1.14-0.51-1.14-1.14v-13.65c0-0.63,0.51-1.14,1.14-1.14h30.48
			c0.63,0,1.14,0.51,1.14,1.14v13.65C145.7,129.67,145.19,130.17,144.56,130.17z M118.07,126.86h16.5v-9.3h-16.5V126.86z"/>
		<path class="st5" d="M78.39,80.11h-4.55c-0.63,0-1.14-0.51-1.14-1.14v-6.83c0-0.63,0.51-1.14,1.14-1.14
			c0.63,0,1.14,0.51,1.14,1.14v5.69h3.41c0.63,0,1.14,0.51,1.14,1.14C79.53,79.6,79.02,80.11,78.39,80.11z"/>
		<path class="st5" d="M92.04,80.11h-4.55c-0.63,0-1.14-0.51-1.14-1.14v-6.83c0-0.63,0.51-1.14,1.14-1.14
			c0.63,0,1.14,0.51,1.14,1.14v5.69h3.41c0.63,0,1.14,0.51,1.14,1.14C93.18,79.6,92.67,80.11,92.04,80.11z"/>
		<path class="st5" d="M78.39,93.76h-4.55c-0.63,0-1.14-0.51-1.14-1.14V85.8c0-0.63,0.51-1.14,1.14-1.14c0.63,0,1.14,0.51,1.14,1.14
			v5.69h3.41c0.63,0,1.14,0.51,1.14,1.14C79.53,93.25,79.02,93.76,78.39,93.76z"/>
		<path class="st5" d="M92.04,93.76h-4.55c-0.63,0-1.14-0.51-1.14-1.14V85.8c0-0.63,0.51-1.14,1.14-1.14c0.63,0,1.14,0.51,1.14,1.14
			v5.69h3.41c0.63,0,1.14,0.51,1.14,1.14C93.18,93.25,92.67,93.76,92.04,93.76z"/>
		<path class="st5" d="M78.39,107.42h-4.55c-0.63,0-1.14-0.51-1.14-1.14v-6.83c0-0.63,0.51-1.14,1.14-1.14
			c0.63,0,1.14,0.51,1.14,1.14v5.69h3.41c0.63,0,1.14,0.51,1.14,1.14S79.02,107.42,78.39,107.42z"/>
		<path class="st5" d="M92.04,107.42h-4.55c-0.63,0-1.14-0.51-1.14-1.14v-6.83c0-0.63,0.51-1.14,1.14-1.14
			c0.63,0,1.14,0.51,1.14,1.14v5.69h3.41c0.63,0,1.14,0.51,1.14,1.14S92.67,107.42,92.04,107.42z"/>
		<path class="st5" d="M163.04,130.1H59.18c-0.63,0-1.14-0.73-1.14-1.62c0-0.89,0.51-1.62,1.14-1.62h103.86
			c0.63,0,1.14,0.73,1.14,1.62C164.18,129.37,163.67,130.1,163.04,130.1z"/>
		<rect x="111.32" y="29.68" class="st9" width="38" height="5"/>
		<rect x="66.46" y="57.92" class="st10" width="32.97" height="5.69"/>
		<rect x="116.07" y="117.56" class="st11" width="26.5" height="9.3"/>
		<g>
			<rect x="109.43" y="45.24" class="st5" width="7.36" height="14.72"/>
			<rect x="120.48" y="45.24" class="st5" width="7.36" height="14.72"/>
			<rect x="131.52" y="45.24" class="st5" width="7.36" height="14.72"/>
			<rect x="109.43" y="67.32" class="st5" width="7.36" height="14.73"/>
			<rect x="120.48" y="67.32" class="st4" width="7.36" height="14.73"/>
			<rect x="131.52" y="67.32" class="st5" width="7.36" height="14.73"/>
			<rect x="142.52" y="45.24" class="st5" width="7.36" height="14.72"/>
			<rect x="142.52" y="67.32" class="st5" width="7.36" height="14.73"/>
		</g>
		<g>
			<rect x="109.43" y="89.24" class="st5" width="7.36" height="14.72"/>
			<rect x="120.48" y="89.24" class="st5" width="7.36" height="14.72"/>
			<rect x="131.52" y="89.24" class="st5" width="7.36" height="14.72"/>
			<rect x="142.52" y="89.24" class="st5" width="7.36" height="14.72"/>
		</g>
	</g>
</g>
<g>
	<g>
		<path class="st5" d="M208.55,114.97V62.34c0-0.35-0.08-0.7-0.23-1.02c-0.05-0.09-0.1-0.17-0.17-0.25
			c-0.12-0.21-0.27-0.41-0.45-0.58c-0.03-0.02-0.04-0.07-0.07-0.09l-27.57-22.56c-0.45-0.36-1.01-0.56-1.59-0.56H61.44l-6.33-4.86
			c-2.66-1.95-6.29-1.94-8.94,0.03L8.23,61.62c-1.83,1.35-2.83,3.55-2.65,5.82c0.19,2.27,1.53,4.28,3.56,5.31
			c2.06,1.03,4.51,0.89,6.44-0.36v42.59 M85.75,72.42c2.32,1.52,5.36,1.4,7.55-0.32c2.19-1.71,3.03-4.63,2.11-7.25h108.13v50.12
			H85.75V72.42z M11.41,68.28c-0.52-0.26-0.85-0.8-0.84-1.38c0.01-0.5,0.25-0.98,0.67-1.26l37.95-29.16
			c0.86-0.64,2.04-0.66,2.92-0.03l38.04,29.23c0.4,0.29,0.63,0.76,0.62,1.25c0,1.24-1.4,1.97-2.41,1.25L55.11,42.45
			c-2.67-1.95-6.29-1.94-8.94,0.04L13,68.14C12.54,68.5,11.92,68.55,11.41,68.28L11.41,68.28z"/>
	</g>
	<path class="st9" d="M35.63,114.97H20.59V68.61l28.59-22.12c0.86-0.64,2.03-0.66,2.91-0.04l28.64,22.16v46.36H65.7"/>
	<path class="st5" d="M50.67,72.37c3.04,0,5.78-1.83,6.95-4.64c1.16-2.81,0.52-6.04-1.63-8.19c-2.15-2.15-5.38-2.79-8.19-1.63
		c-2.81,1.16-4.64,3.9-4.64,6.95C43.15,69,46.51,72.37,50.67,72.37L50.67,72.37z"/>
	<polygon class="st11" points="177.58,42.29 199.03,59.84 90.79,59.84 67.96,42.29 	"/>
</g>
<g>
	<rect x="95.9" y="81.49" class="st12" width="10.52" height="18.97"/>
	<path class="st5" d="M94.51,103.42h13.3c0.77,0,1.39-0.66,1.39-1.48V80.01c0-0.82-0.62-1.48-1.39-1.48h-13.3
		c-0.77,0-1.39,0.66-1.39,1.48v21.93C93.12,102.76,93.74,103.42,94.51,103.42L94.51,103.42z M106.42,100.46h-3.82V81.49h3.82V100.46
		z M95.9,81.49h3.93v18.97H95.9V81.49z M95.9,81.49"/>
	<path class="st5" d="M116.09,113.86h16.09c0.77,0,1.39-0.66,1.39-1.48V80.01c0-0.82-0.62-1.48-1.39-1.48h-16.09
		c-0.77,0-1.39,0.66-1.39,1.48v32.37C114.7,113.2,115.32,113.86,116.09,113.86L116.09,113.86z"/>
	<rect x="162.73" y="81.49" class="st12" width="10.52" height="18.97"/>
	<path class="st5" d="M140.45,103.42h13.3c0.77,0,1.39-0.66,1.39-1.48V80.01c0-0.82-0.62-1.48-1.39-1.48h-13.3
		c-0.77,0-1.39,0.66-1.39,1.48v21.93C139.07,102.76,139.69,103.42,140.45,103.42L140.45,103.42z M152.37,100.46h-3.82V81.49h3.82
		V100.46z M141.84,81.49h3.93v18.97h-3.93V81.49z M141.84,81.49"/>
	<path class="st5" d="M161.34,103.42h13.3c0.77,0,1.39-0.66,1.39-1.48V80.01c0-0.82-0.62-1.48-1.39-1.48h-13.3
		c-0.77,0-1.39,0.66-1.39,1.48v21.93C159.95,102.76,160.57,103.42,161.34,103.42L161.34,103.42z M173.25,100.46h-3.82V81.49h3.82
		V100.46z M162.73,81.49h3.93v18.97h-3.93V81.49z M162.73,81.49"/>
	<path class="st5" d="M182.22,103.42h13.3c0.77,0,1.39-0.66,1.39-1.48V80.01c0-0.82-0.62-1.48-1.39-1.48h-13.3
		c-0.77,0-1.39,0.66-1.39,1.48v21.93C180.83,102.76,181.45,103.42,182.22,103.42L182.22,103.42z M194.13,100.46h-3.82V81.49h3.82
		V100.46z M183.61,81.49h3.93v18.97h-3.93V81.49z M183.61,81.49"/>
	<rect x="117.48" y="81.49" class="st4" width="13.68" height="29.41"/>
	<path class="st5" d="M43.76,106.37h13.3c0.77,0,1.39-0.66,1.39-1.48V82.96c0-0.82-0.62-1.48-1.39-1.48h-13.3
		c-0.77,0-1.39,0.66-1.39,1.48v21.93C42.37,105.7,42.99,106.37,43.76,106.37L43.76,106.37z M55.67,103.41h-3.82V84.44h3.82V103.41z
		 M45.15,84.44h3.93v18.97h-3.93V84.44z M45.15,84.44"/>
</g>
<rect x="19.36" y="115.14" class="st11" width="186.75" height="11.59"/>
<g>
	<rect x="85.75" y="116.81" class="st13" width="117.93" height="9.07"/>
	<rect x="20.44" y="116.81" class="st13" width="60.3" height="9.07"/>
	<polygon class="st5" points="208.29,111.3 208.29,116.81 203.68,116.81 203.68,125.88 208.55,125.88 208.55,111.3 	"/>
	<rect x="15.57" y="116.81" class="st5" width="4.87" height="9.07"/>
	<polygon class="st5" points="85.75,125.88 85.75,116.81 203.68,116.81 208.29,116.81 208.29,111.3 203.68,111.3 85.75,111.3 
		80.74,111.3 15.57,111.3 15.57,113.68 15.57,116.81 20.44,116.81 80.74,116.81 80.74,125.88 20.44,125.88 15.57,125.88 
		15.57,131.08 15.57,131.39 208.55,131.39 208.55,126.55 208.55,125.88 203.68,125.88 	"/>
</g>
<g>
	<path class="st14" d="M141.15,100.44v-1.95h-11.86l-30.69,15.77l1.4,1.62l3.09-1.59v9.56h-5.15v7.93h43.2v-25.49H136v-5.85H141.15z
		 M108.15,123.85h-2.53v-10.86l7.59-3.9V118h-5.06V123.85z M118.28,118h-2.53v-10.21l7.59-3.9v8.26h-5.06V118z M133.47,106.29h-5.06
		v5.85h-2.53v-9.56l4.18-2.15h3.41V106.29z M133.47,106.29"/>
</g>
</svg>
