<?xml version="1.0" encoding="utf-8"?>
<!-- Generator: Adobe Illustrator 24.1.3, SVG Export Plug-In . SVG Version: 6.00 Build 0)  -->
<svg version="1.1" id="Forma_1_1_" xmlns="http://www.w3.org/2000/svg" xmlns:xlink="http://www.w3.org/1999/xlink" x="0px" y="0px"
	 viewBox="0 0 70 51" style="enable-background:new 0 0 70 51;" xml:space="preserve">
<style type="text/css">
	.st0{fill-rule:evenodd;clip-rule:evenodd;fill:#B22234;}
</style>
<g id="Forma_1">
	<g>
		<path class="st0" d="M58.9,38.69c-0.14-0.41-1-1.01-2.59-1.81c-0.43-0.25-1.05-0.59-1.84-1.02c-0.8-0.43-1.52-0.83-2.16-1.19
			c-0.65-0.36-1.26-0.72-1.82-1.06c-0.09-0.07-0.37-0.27-0.85-0.6c-0.48-0.33-0.88-0.57-1.21-0.73c-0.33-0.16-0.65-0.24-0.97-0.24
			c-0.45,0-1.02,0.32-1.7,0.97c-0.68,0.65-1.31,1.35-1.87,2.11c-0.57,0.76-1.17,1.47-1.81,2.11c-0.64,0.65-1.16,0.97-1.57,0.97
			c-0.2,0-0.46-0.06-0.77-0.17c-0.31-0.11-0.54-0.21-0.7-0.29c-0.16-0.08-0.43-0.24-0.82-0.48c-0.39-0.24-0.6-0.37-0.65-0.39
			c-3.11-1.73-5.78-3.7-8.01-5.93c-2.23-2.23-4.2-4.9-5.93-8.01c-0.02-0.05-0.15-0.26-0.39-0.65c-0.24-0.39-0.4-0.66-0.48-0.82
			c-0.08-0.16-0.18-0.39-0.29-0.7c-0.11-0.31-0.17-0.56-0.17-0.77c0-0.41,0.32-0.93,0.97-1.57c0.65-0.64,1.35-1.24,2.11-1.81
			c0.76-0.57,1.47-1.19,2.11-1.87c0.65-0.68,0.97-1.25,0.97-1.7c0-0.32-0.08-0.64-0.24-0.97c-0.16-0.33-0.4-0.73-0.73-1.21
			c-0.33-0.48-0.53-0.76-0.6-0.85c-0.34-0.57-0.69-1.18-1.06-1.82c-0.36-0.65-0.76-1.37-1.19-2.17c-0.43-0.79-0.77-1.41-1.02-1.84
			c-0.8-1.59-1.4-2.45-1.81-2.59c-0.16-0.07-0.4-0.1-0.72-0.1c-0.61,0-1.41,0.11-2.4,0.34c-0.99,0.23-1.77,0.47-2.34,0.72
			c-1.14,0.48-2.34,1.86-3.61,4.16C11.58,8.85,11,10.96,11,13.06c0,0.61,0.04,1.21,0.12,1.79c0.08,0.58,0.22,1.23,0.43,1.96
			c0.2,0.73,0.37,1.27,0.49,1.62c0.12,0.35,0.36,0.98,0.7,1.89c0.34,0.91,0.55,1.47,0.61,1.67c0.8,2.23,1.74,4.22,2.83,5.97
			c1.79,2.91,4.24,5.92,7.35,9.02c3.1,3.1,6.11,5.55,9.02,7.35c1.75,1.09,3.74,2.03,5.97,2.83c0.2,0.07,0.76,0.27,1.67,0.61
			c0.91,0.34,1.54,0.57,1.89,0.7c0.35,0.12,0.89,0.29,1.62,0.49c0.73,0.2,1.38,0.35,1.96,0.43c0.58,0.08,1.18,0.12,1.79,0.12
			c2.09,0,4.2-0.58,6.34-1.74c2.29-1.27,3.68-2.48,4.16-3.61c0.25-0.57,0.49-1.35,0.72-2.33c0.23-0.99,0.34-1.79,0.34-2.4
			C59,39.09,58.97,38.85,58.9,38.69z"/>
	</g>
</g>
</svg>
