<?xml version="1.0" encoding="utf-8"?>
<!-- Generator: Adobe Illustrator 24.1.0, SVG Export Plug-In . SVG Version: 6.00 Build 0)  -->
<svg version="1.1" id="Layer_1" xmlns="http://www.w3.org/2000/svg" xmlns:xlink="http://www.w3.org/1999/xlink" x="0px" y="0px"
	 viewBox="0 0 217.78 155.21" style="enable-background:new 0 0 217.78 155.21;" xml:space="preserve">
<style type="text/css">
	.st0{display:none;}
	.st1{display:inline;fill:#4C4A4B;}
	.st2{display:inline;fill:#E5E5E4;}
	.st3{display:inline;}
	.st4{fill:#C82128;}
	.st5{fill:#4C4A4B;}
	.st6{display:inline;fill:#C82128;}
	.st7{display:inline;fill:#CBCBCA;}
	.st8{display:inline;fill:#FFFFFF;}
	.st9{fill:#E5E5E4;}
	.st10{fill:#FFFFFF;}
	.st11{fill:#CBCBCA;}
</style>
<g class="st0">
	<path class="st1" d="M94.42,136.56h-4.2h-1.04h1.36h-1.04h-0.13V75.63h6.81v-4.27h-6.81v-3.81c0-0.71-0.35-1.37-0.94-1.77
		l-6.1-4.15V46.05c0-1.18-0.96-2.14-2.14-2.14H70.2c-1.18,0-2.14,0.96-2.14,2.14v5.9l-1.32-0.9c-0.73-0.49-1.68-0.49-2.4,0
		L42.66,65.78c-0.59,0.4-0.94,1.06-0.94,1.77v3.81h-7.86v-3.81c0-0.71-0.35-1.37-0.94-1.77l-6.38-4.33V46.05
		c0-1.18-0.96-2.14-2.14-2.14h-9.98c-1.18,0-2.14,0.96-2.14,2.14v5.72l-1.05-0.72c-0.73-0.49-1.68-0.49-2.4,0l-21.68,14.72
		c-0.59,0.4-0.94,1.06-0.94,1.77v3.81h-5.14c-1.18,0-2.14,0.96-2.14,2.14c0,1.18,0.96,2.14,2.14,2.14h5.14v60.93h-5.14
		c-1.18,0-2.14,0.96-2.14,2.14c0,1.18,0.96,2.14,2.14,2.14H94.42c1.18,0,2.14-0.96,2.14-2.14C96.56,137.52,95.6,136.56,94.42,136.56
		z M22.28,58.54l-5.7-3.87v-6.48h5.7V58.54z M41.72,136.56h-7.86V75.63h7.86V136.56z M72.34,48.19h5.7v10.54l-5.7-3.87V48.19z
		 M69.82,136.56h-8.55v-15.68h8.55V136.56z M85.09,136.56H74.09v-17.82c0-1.18-0.96-2.14-2.14-2.14H59.13
		c-1.18,0-2.14,0.96-2.14,2.14v17.82H46V68.68l19.54-13.27l19.54,13.27V136.56z"/>
	<path class="st2" d="M18.6,136.56v-17.82c0-1.18-0.96-2.14-2.14-2.14H3.64c-1.18,0-2.14,0.96-2.14,2.14v17.82H-9.49V68.68
		l19.54-13.27l19.54,13.27v67.88H18.6z"/>
	<g class="st3">
		<path class="st4" d="M16.46,70.28H3.64c-1.18,0-2.14,0.96-2.14,2.14v12.83c0,1.18,0.96,2.14,2.14,2.14h12.83
			c1.18,0,2.14-0.96,2.14-2.14V72.42C18.6,71.24,17.65,70.28,16.46,70.28L16.46,70.28z M14.33,83.11"/>
		<path class="st4" d="M16.46,92.55H3.64c-1.18,0-2.14,0.96-2.14,2.14v12.83c0,1.18,0.96,2.14,2.14,2.14h12.83
			c1.18,0,2.14-0.96,2.14-2.14V94.69C18.6,93.51,17.65,92.55,16.46,92.55L16.46,92.55z M14.33,105.38"/>
		<path class="st5" d="M71.96,70.28H59.13c-1.18,0-2.14,0.96-2.14,2.14v12.83c0,1.18,0.96,2.14,2.14,2.14h12.83
			c1.18,0,2.14-0.96,2.14-2.14V72.42C74.09,71.24,73.14,70.28,71.96,70.28L71.96,70.28z M69.82,83.11h-8.55v-8.55h8.55V83.11z
			 M69.82,83.11"/>
		<path class="st5" d="M71.96,92.73H59.13c-1.18,0-2.14,0.96-2.14,2.14v12.83c0,1.18,0.96,2.14,2.14,2.14h12.83
			c1.18,0,2.14-0.96,2.14-2.14V94.87C74.09,93.69,73.14,92.73,71.96,92.73L71.96,92.73z M69.82,105.56h-8.55v-8.55h8.55V105.56z
			 M69.82,105.56"/>
	</g>
	<rect x="5.77" y="120.88" class="st6" width="8.55" height="15.68"/>
	<rect x="61.27" y="120.88" class="st7" width="8.55" height="15.68"/>
	<circle class="st8" cx="12.63" cy="128.82" r="0.7"/>
	<circle class="st1" cx="68.3" cy="128.82" r="0.7"/>
</g>
<g class="st0">
	<g class="st3">
		<path class="st5" d="M117.47,139.39V20.7c0-0.8,0.65-1.45,1.45-1.45h74.21c0.8,0,1.45,0.65,1.45,1.45v118.68
			c0,0.8-0.65,1.45-1.45,1.45h-74.21C118.11,140.83,117.47,140.19,117.47,139.39z M190.36,23.44h-68.69v113.21h68.69V23.44z"/>
		<path class="st5" d="M190.84,139.39V46.75c0-0.8,0.65-1.45,1.45-1.45h46.32c0.8,0,1.45,0.65,1.45,1.45v92.63
			c0,0.8-0.65,1.45-1.45,1.45h-46.32C191.49,140.83,190.84,140.19,190.84,139.39z"/>
		<rect x="194.65" y="48.93" class="st9" width="41.6" height="88.1"/>
		<path class="st5" d="M190.84,58.33V46.75c0-0.8,0.65-1.45,1.45-1.45h46.32c0.8,0,1.45,0.65,1.45,1.45v11.58
			c0,0.8-0.65,1.45-1.45,1.45h-46.32C191.49,59.78,190.84,59.13,190.84,58.33z"/>
		<path class="st5" d="M126.56,21.97V10.4c0-0.8,0.71-1.45,1.59-1.45h54.06c0.88,0,1.59,0.65,1.59,1.45v11.58
			c0,0.8-0.71,1.45-1.59,1.45h-54.06C127.27,23.42,126.56,22.77,126.56,21.97z"/>
		<path class="st5" d="M203.87,48.2c1.05,0,1.91-0.65,1.91-1.45V23.6c0-0.8-0.85-1.45-1.91-1.45c-1.05,0-1.91,0.65-1.91,1.45v23.16
			C201.96,47.55,202.81,48.2,203.87,48.2z"/>
		<path class="st5" d="M215.44,48.2c1.05,0,1.91-0.65,1.91-1.45V32.28c0-0.8-0.85-1.45-1.91-1.45c-1.05,0-1.91,0.65-1.91,1.45v14.47
			C213.54,47.55,214.39,48.2,215.44,48.2z"/>
		<path class="st5" d="M227.02,48.2c1.05,0,1.91-0.65,1.91-1.45V17.81c0-0.8-0.85-1.45-1.91-1.45c-1.05,0-1.91,0.65-1.91,1.45v28.95
			C225.12,47.55,225.97,48.2,227.02,48.2z"/>
		<path class="st5" d="M135.62,139.39v-17.37c0-0.8,0.65-1.45,1.45-1.45h38.77c0.8,0,1.45,0.65,1.45,1.45v17.37
			c0,0.8-0.65,1.45-1.45,1.45h-38.77C136.27,140.83,135.62,140.19,135.62,139.39z M170.76,124.79h-20.99v11.83h20.99V124.79z"/>
		<path class="st5" d="M221.23,77.15h5.79c0.8,0,1.45-0.65,1.45-1.45v-8.68c0-0.8-0.65-1.45-1.45-1.45c-0.8,0-1.45,0.65-1.45,1.45
			v7.24h-4.34c-0.8,0-1.45,0.65-1.45,1.45C219.79,76.5,220.43,77.15,221.23,77.15z"/>
		<path class="st5" d="M203.87,77.15h5.79c0.8,0,1.45-0.65,1.45-1.45v-8.68c0-0.8-0.65-1.45-1.45-1.45c-0.8,0-1.45,0.65-1.45,1.45
			v7.24h-4.34c-0.8,0-1.45,0.65-1.45,1.45C202.42,76.5,203.07,77.15,203.87,77.15z"/>
		<path class="st5" d="M221.23,94.52h5.79c0.8,0,1.45-0.65,1.45-1.45v-8.68c0-0.8-0.65-1.45-1.45-1.45c-0.8,0-1.45,0.65-1.45,1.45
			v7.24h-4.34c-0.8,0-1.45,0.65-1.45,1.45C219.79,93.87,220.43,94.52,221.23,94.52z"/>
		<path class="st5" d="M203.87,94.52h5.79c0.8,0,1.45-0.65,1.45-1.45v-8.68c0-0.8-0.65-1.45-1.45-1.45c-0.8,0-1.45,0.65-1.45,1.45
			v7.24h-4.34c-0.8,0-1.45,0.65-1.45,1.45C202.42,93.87,203.07,94.52,203.87,94.52z"/>
		<path class="st5" d="M221.23,111.89h5.79c0.8,0,1.45-0.65,1.45-1.45v-8.68c0-0.8-0.65-1.45-1.45-1.45c-0.8,0-1.45,0.65-1.45,1.45
			v7.24h-4.34c-0.8,0-1.45,0.65-1.45,1.45C219.79,111.24,220.43,111.89,221.23,111.89z"/>
		<path class="st5" d="M203.87,111.89h5.79c0.8,0,1.45-0.65,1.45-1.45v-8.68c0-0.8-0.65-1.45-1.45-1.45c-0.8,0-1.45,0.65-1.45,1.45
			v7.24h-4.34c-0.8,0-1.45,0.65-1.45,1.45C202.42,111.24,203.07,111.89,203.87,111.89z"/>
		<path class="st5" d="M113.56,140.74h132.11c0.8,0,1.45-0.92,1.45-2.06c0-1.14-0.65-2.06-1.45-2.06H113.56
			c-0.8,0-1.45,0.92-1.45,2.06C112.11,139.82,112.76,140.74,113.56,140.74z"/>
		<rect x="131.01" y="13" class="st9" width="48.34" height="6.36"/>
		<rect x="194.48" y="48.93" class="st10" width="41.94" height="7.24"/>
		<rect x="139.6" y="124.79" class="st11" width="33.71" height="11.83"/>
		<g>
			<rect x="172.38" y="32.79" class="st5" width="9.36" height="18.73"/>
			<rect x="158.33" y="32.79" class="st5" width="9.36" height="18.73"/>
			<rect x="144.28" y="32.79" class="st5" width="9.36" height="18.73"/>
			<rect x="172.38" y="60.89" class="st5" width="9.36" height="18.73"/>
			<rect x="158.33" y="60.89" class="st4" width="9.36" height="18.73"/>
			<rect x="144.28" y="60.89" class="st5" width="9.36" height="18.73"/>
			<rect x="130.29" y="32.79" class="st5" width="9.36" height="18.73"/>
			<rect x="130.29" y="60.89" class="st5" width="9.36" height="18.73"/>
		</g>
		<g>
			<rect x="172.38" y="88.76" class="st5" width="9.36" height="18.73"/>
			<rect x="158.33" y="88.76" class="st5" width="9.36" height="18.73"/>
			<rect x="144.28" y="88.76" class="st5" width="9.36" height="18.73"/>
			<rect x="130.29" y="88.76" class="st5" width="9.36" height="18.73"/>
		</g>
	</g>
</g>
<g class="st0">
	<g class="st3">
		<path class="st5" d="M158.83,130.17h-58.34c-0.63,0-1.14-0.51-1.14-1.14v-93.3c0-0.63,0.51-1.14,1.14-1.14h58.34
			c0.63,0,1.14,0.51,1.14,1.14v93.31C159.97,129.67,159.46,130.17,158.83,130.17z M102.66,126.88h54v-89h-54V126.88z"/>
		<path class="st5" d="M101.15,130.17H64.73c-0.63,0-1.14-0.51-1.14-1.14V56.21c0-0.63,0.51-1.14,1.14-1.14h36.41
			c0.63,0,1.14,0.51,1.14,1.14v72.82C102.28,129.67,101.77,130.17,101.15,130.17z"/>
		<rect x="66.59" y="57.92" class="st9" width="32.7" height="69.26"/>
		<path class="st5" d="M101.15,66.45H64.73c-0.63,0-1.14-0.51-1.14-1.14v-9.1c0-0.63,0.51-1.14,1.14-1.14h36.41
			c0.63,0,1.14,0.51,1.14,1.14v9.1C102.28,65.95,101.77,66.45,101.15,66.45z"/>
		<path class="st5" d="M151.57,37.87h-42.5c-0.69,0-1.25-0.51-1.25-1.14v-9.1c0-0.63,0.56-1.14,1.25-1.14h42.5
			c0.69,0,1.25,0.51,1.25,1.14v9.1C152.82,37.36,152.26,37.87,151.57,37.87z"/>
		<path class="st5" d="M92.04,57.35c-0.83,0-1.5-0.51-1.5-1.14V38.01c0-0.63,0.67-1.14,1.5-1.14c0.83,0,1.5,0.51,1.5,1.14v18.21
			C93.54,56.84,92.87,57.35,92.04,57.35z"/>
		<path class="st5" d="M82.94,57.35c-0.83,0-1.5-0.51-1.5-1.14V44.84c0-0.63,0.67-1.14,1.5-1.14c0.83,0,1.5,0.51,1.5,1.14v11.38
			C84.44,56.84,83.77,57.35,82.94,57.35z"/>
		<path class="st5" d="M73.84,57.35c-0.83,0-1.5-0.51-1.5-1.14V33.46c0-0.63,0.67-1.14,1.5-1.14c0.83,0,1.5,0.51,1.5,1.14v22.76
			C75.34,56.84,74.67,57.35,73.84,57.35z"/>
		<path class="st5" d="M144.56,130.17h-30.48c-0.63,0-1.14-0.51-1.14-1.14v-13.65c0-0.63,0.51-1.14,1.14-1.14h30.48
			c0.63,0,1.14,0.51,1.14,1.14v13.65C145.7,129.67,145.19,130.17,144.56,130.17z M118.07,126.86h16.5v-9.3h-16.5V126.86z"/>
		<path class="st5" d="M78.39,80.11h-4.55c-0.63,0-1.14-0.51-1.14-1.14v-6.83c0-0.63,0.51-1.14,1.14-1.14
			c0.63,0,1.14,0.51,1.14,1.14v5.69h3.41c0.63,0,1.14,0.51,1.14,1.14C79.53,79.6,79.02,80.11,78.39,80.11z"/>
		<path class="st5" d="M92.04,80.11h-4.55c-0.63,0-1.14-0.51-1.14-1.14v-6.83c0-0.63,0.51-1.14,1.14-1.14
			c0.63,0,1.14,0.51,1.14,1.14v5.69h3.41c0.63,0,1.14,0.51,1.14,1.14C93.18,79.6,92.67,80.11,92.04,80.11z"/>
		<path class="st5" d="M78.39,93.76h-4.55c-0.63,0-1.14-0.51-1.14-1.14V85.8c0-0.63,0.51-1.14,1.14-1.14c0.63,0,1.14,0.51,1.14,1.14
			v5.69h3.41c0.63,0,1.14,0.51,1.14,1.14C79.53,93.25,79.02,93.76,78.39,93.76z"/>
		<path class="st5" d="M92.04,93.76h-4.55c-0.63,0-1.14-0.51-1.14-1.14V85.8c0-0.63,0.51-1.14,1.14-1.14c0.63,0,1.14,0.51,1.14,1.14
			v5.69h3.41c0.63,0,1.14,0.51,1.14,1.14C93.18,93.25,92.67,93.76,92.04,93.76z"/>
		<path class="st5" d="M78.39,107.42h-4.55c-0.63,0-1.14-0.51-1.14-1.14v-6.83c0-0.63,0.51-1.14,1.14-1.14
			c0.63,0,1.14,0.51,1.14,1.14v5.69h3.41c0.63,0,1.14,0.51,1.14,1.14S79.02,107.42,78.39,107.42z"/>
		<path class="st5" d="M92.04,107.42h-4.55c-0.63,0-1.14-0.51-1.14-1.14v-6.83c0-0.63,0.51-1.14,1.14-1.14
			c0.63,0,1.14,0.51,1.14,1.14v5.69h3.41c0.63,0,1.14,0.51,1.14,1.14S92.67,107.42,92.04,107.42z"/>
		<path class="st5" d="M163.04,130.1H59.18c-0.63,0-1.14-0.73-1.14-1.62c0-0.89,0.51-1.62,1.14-1.62h103.86
			c0.63,0,1.14,0.73,1.14,1.62C164.18,129.37,163.67,130.1,163.04,130.1z"/>
		<rect x="111.32" y="29.68" class="st9" width="38" height="5"/>
		<rect x="66.46" y="57.92" class="st10" width="32.97" height="5.69"/>
		<rect x="116.07" y="117.56" class="st11" width="26.5" height="9.3"/>
		<g>
			<rect x="109.43" y="45.24" class="st5" width="7.36" height="14.72"/>
			<rect x="120.48" y="45.24" class="st5" width="7.36" height="14.72"/>
			<rect x="131.52" y="45.24" class="st5" width="7.36" height="14.72"/>
			<rect x="109.43" y="67.32" class="st5" width="7.36" height="14.73"/>
			<rect x="120.48" y="67.32" class="st4" width="7.36" height="14.73"/>
			<rect x="131.52" y="67.32" class="st5" width="7.36" height="14.73"/>
			<rect x="142.52" y="45.24" class="st5" width="7.36" height="14.72"/>
			<rect x="142.52" y="67.32" class="st5" width="7.36" height="14.73"/>
		</g>
		<g>
			<rect x="109.43" y="89.24" class="st5" width="7.36" height="14.72"/>
			<rect x="120.48" y="89.24" class="st5" width="7.36" height="14.72"/>
			<rect x="131.52" y="89.24" class="st5" width="7.36" height="14.72"/>
			<rect x="142.52" y="89.24" class="st5" width="7.36" height="14.72"/>
		</g>
	</g>
</g>
<path class="st5" d="M203.19,127.31h-5.81V59.77h5.81c1.31,0,2.37-1.06,2.37-2.37c0-1.31-1.06-2.37-2.37-2.37h-5.81v-4.22
	c0-0.79-0.39-1.52-1.04-1.96l-6.47-4.39V26.98c0-1.31-1.06-2.37-2.37-2.37h-11.06c-1.31,0-2.37,1.06-2.37,2.37v6.74l-1.77-1.2
	c-0.8-0.55-1.86-0.55-2.66,0l-24.03,16.32c-0.65,0.44-1.04,1.17-1.04,1.96v4.22h-8.71v-4.22c0-0.79-0.39-1.52-1.04-1.96l-6.77-4.6
	V26.98c0-1.31-1.06-2.37-2.37-2.37h-11.06c-1.31,0-2.37,1.06-2.37,2.37v6.54l-1.47-1c-0.8-0.55-1.86-0.55-2.66,0L84.09,48.85
	c-0.65,0.44-1.04,1.17-1.04,1.96v4.22h-8.71v-4.22c0-0.79-0.39-1.52-1.04-1.96l-7.07-4.8V26.98c0-1.31-1.06-2.37-2.37-2.37H52.81
	c-1.31,0-2.37,1.06-2.37,2.37v6.34l-1.17-0.79c-0.8-0.55-1.86-0.55-2.66,0L22.58,48.85c-0.65,0.44-1.04,1.17-1.04,1.96v4.22h-5.69
	c-1.31,0-2.37,1.06-2.37,2.37c0,1.31,1.06,2.37,2.37,2.37h5.69v67.54h-5.69c-1.31,0-2.37,1.06-2.37,2.37c0,1.31,1.06,2.37,2.37,2.37
	h187.34c1.31,0,2.37-1.06,2.37-2.37C205.56,128.38,204.49,127.31,203.19,127.31L203.19,127.31z M178.81,29.35h6.32v11.88l-6.32-4.29
	V29.35z M144.57,59.77v67.54h-8.71V59.77H144.57z M117,29.35h6.32v11.68L117,36.74V29.35z M83.05,59.77v67.54h-8.71V59.77H83.05z
	 M55.18,29.35h6.32v11.48l-6.32-4.29V29.35z M114.2,127.31h-9.48v-17.38h9.48V127.31z M118.94,127.31v-19.75
	c0-1.31-1.06-2.37-2.37-2.37h-14.22c-1.31,0-2.37,1.06-2.37,2.37v19.75H87.79V52.06l21.66-14.71l21.66,14.71v75.25H118.94z
	 M175.71,127.31h-9.48v-17.38h9.48V127.31z M180.45,127.31v-19.75c0-1.31-1.06-2.37-2.37-2.37h-14.22c-1.31,0-2.37,1.06-2.37,2.37
	v19.75h-12.18V52.06l21.66-14.71l21.66,14.71v75.25H180.45z M180.45,127.31"/>
<path class="st9" d="M57.42,127.31v-19.75c0-1.31-1.06-2.37-2.37-2.37H40.83c-1.31,0-2.37,1.06-2.37,2.37v19.75H26.28V52.06
	l21.66-14.71l21.66,14.71v75.25H57.42z"/>
<g>
	<path class="st9" d="M180.36,127.31v-19.75c0-1.31-1.06-2.37-2.37-2.37h-14.22c-1.31,0-2.37,1.06-2.37,2.37v19.75h-12.18V52.06
		l21.66-14.71l21.66,14.71v75.25H180.36z"/>
	<path class="st5" d="M55.05,78.73H40.83c-1.31,0-2.37,1.06-2.37,2.37v14.22c0,1.31,1.06,2.37,2.37,2.37h14.22
		c1.31,0,2.37-1.06,2.37-2.37V81.1C57.42,79.79,56.36,78.73,55.05,78.73L55.05,78.73z M52.68,92.95H43.2v-9.48h9.48V92.95z
		 M52.68,92.95"/>
	<path class="st4" d="M116.57,78.73h-14.22c-1.31,0-2.37,1.06-2.37,2.37v14.22c0,1.31,1.06,2.37,2.37,2.37h14.22
		c1.31,0,2.37-1.06,2.37-2.37V81.1C118.94,79.79,117.88,78.73,116.57,78.73L116.57,78.73z M114.2,92.95"/>
	<path class="st4" d="M116.57,54.04h-14.22c-1.31,0-2.37,1.06-2.37,2.37v14.22c0,1.31,1.06,2.37,2.37,2.37h14.22
		c1.31,0,2.37-1.06,2.37-2.37V56.41C118.94,55.1,117.88,54.04,116.57,54.04L116.57,54.04z M114.2,68.26"/>
	<path class="st5" d="M178.08,78.73h-14.22c-1.31,0-2.37,1.06-2.37,2.37v14.22c0,1.31,1.06,2.37,2.37,2.37h14.22
		c1.31,0,2.37-1.06,2.37-2.37V81.1C180.45,79.79,179.39,78.73,178.08,78.73L178.08,78.73z M175.71,92.95h-9.48v-9.48h9.48V92.95z
		 M175.71,92.95"/>
	<path class="st5" d="M55.05,54.04H40.83c-1.31,0-2.37,1.06-2.37,2.37v14.22c0,1.31,1.06,2.37,2.37,2.37h14.22
		c1.31,0,2.37-1.06,2.37-2.37V56.41C57.42,55.1,56.36,54.04,55.05,54.04L55.05,54.04z M52.68,68.26H43.2v-9.48h9.48V68.26z
		 M52.68,68.26"/>
	<path class="st5" d="M178.08,54.04h-14.22c-1.31,0-2.37,1.06-2.37,2.37v14.22c0,1.31,1.06,2.37,2.37,2.37h14.22
		c1.31,0,2.37-1.06,2.37-2.37V56.41C180.45,55.1,179.39,54.04,178.08,54.04L178.08,54.04z M175.71,68.26h-9.48v-9.48h9.48V68.26z
		 M175.71,68.26"/>
</g>
<rect x="43.2" y="109.93" class="st10" width="9.48" height="17.38"/>
<rect x="166.23" y="109.93" class="st10" width="9.48" height="17.38"/>
<rect x="104.72" y="109.93" class="st4" width="9.48" height="17.38"/>
<circle class="st5" cx="50.8" cy="118.73" r="0.77"/>
<circle class="st10" cx="112.52" cy="118.73" r="0.77"/>
<circle class="st5" cx="174.24" cy="118.73" r="0.77"/>
</svg>
