<?xml version="1.0" encoding="utf-8"?>
<!-- Generator: Adobe Illustrator 24.1.0, SVG Export Plug-In . SVG Version: 6.00 Build 0)  -->
<svg version="1.1" id="Layer_1" xmlns="http://www.w3.org/2000/svg" xmlns:xlink="http://www.w3.org/1999/xlink" x="0px" y="0px"
	 viewBox="0 0 144 144" style="enable-background:new 0 0 144 144;" xml:space="preserve">
<style type="text/css">
	.st0{fill:#4C4A4B;}
	.st1{fill:#E5E5E4;}
	.st2{fill:#C82128;}
</style>
<g>
	<path class="st0" d="M134.67,111.46c-1.19,0-2.16,0.97-2.16,2.16v2.16h-2.15v-2.16c0-1.19-0.97-2.16-2.16-2.16
		c-1.19,0-2.16,0.97-2.16,2.16v2.16h-2.16V72.16c1.13,0.51,2.32,0.78,3.51,0.78c2.32,0,4.62-0.94,6.33-2.77
		c1.63-1.76,2.47-4.15,2.28-6.56c-0.19-2.4-1.39-4.63-3.29-6.11L77.93,14.66L72.06,9.2l-5.73,5.34L11.42,57.5
		c-1.9,1.48-3.1,3.71-3.29,6.11c-0.19,2.4,0.64,4.8,2.29,6.56c2.57,2.78,6.51,3.48,9.83,1.99v43.62h-2.16v-2.16
		c0-1.19-0.97-2.16-2.16-2.16c-1.19,0-2.16,0.97-2.16,2.16v2.16h-2.15v-2.16c0-1.19-0.97-2.16-2.16-2.16
		c-1.19,0-2.16,0.97-2.16,2.16v19.43c0,1.19,0.97,2.16,2.16,2.16c1.19,0,2.16-0.97,2.16-2.16v-2.15h2.15v2.15
		c0,1.19,0.97,2.16,2.16,2.16c1.19,0,2.16-0.97,2.16-2.16v-2.15h2.16v4.31h103.63v-4.31h2.16v2.15c0,1.19,0.97,2.16,2.16,2.16
		c1.19,0,2.16-0.97,2.16-2.16v-2.15h2.15v2.15c0,1.19,0.97,2.16,2.16,2.16c1.19,0,2.16-0.97,2.16-2.16v-19.43
		C136.83,112.43,135.86,111.46,134.67,111.46L134.67,111.46z M13.57,67.22c-0.82-0.9-1.23-2.06-1.14-3.27
		c0.11-1.22,0.69-2.31,1.65-3.06l55.04-43.08l2.94-2.73l3.08,2.84l54.9,42.96c0.96,0.75,1.55,1.84,1.65,3.06
		c0.09,1.21-0.32,2.38-1.14,3.27c-1.53,1.64-4.02,1.85-5.8,0.49l-0.87-0.66L72.06,27.1L21.08,66.39h-0.01l-1.71,1.32
		C17.58,69.08,15.1,68.87,13.57,67.22L13.57,67.22z M11.61,126.58v-6.48h2.15v6.48H11.61z M18.08,126.58v-6.48h2.16v6.48H18.08z
		 M123.87,126.58v-6.48h2.16v6.48H123.87z M130.36,126.58v-6.48h2.15v6.48H130.36z M130.36,126.58"/>
	<polygon class="st1" points="119.56,130.89 106.6,130.89 106.6,94.19 76.38,94.19 76.38,130.89 24.55,130.89 24.55,69.17 
		72.06,32.55 119.56,69.17 	"/>
	<path class="st0" d="M37.51,85.56h30.22V63.97H37.51V85.56z M63.42,68.28"/>
	<path class="st0" d="M37.51,94.19v25.9h30.22v-25.9H37.51z M50.47,98.5v6.48h-8.63V98.5H50.47z M41.83,109.3h8.63v6.48h-8.63V109.3
		z M54.79,115.78v-6.48h8.63v6.48H54.79z M63.42,104.99h-8.63V98.5h8.63V104.99z M63.42,104.99"/>
	<path class="st0" d="M76.38,85.56h30.22V63.97H76.38V85.56z M80.69,81.23v-2.16h21.59v2.16H80.69z M102.28,68.28v6.48H80.69v-6.48
		H102.28z M102.28,68.28"/>
</g>
<rect x="80.69" y="98.5" class="st2" width="21.59" height="32.39"/>
<rect x="41.83" y="74.76" class="st1" width="21.59" height="6.47"/>
<rect x="41.83" y="68.28" class="st1" width="21.59" height="2.16"/>
</svg>
