<?xml version="1.0" encoding="utf-8"?>
<!-- Generator: Adobe Illustrator 24.1.0, SVG Export Plug-In . SVG Version: 6.00 Build 0)  -->
<svg version="1.1" id="Layer_1" xmlns="http://www.w3.org/2000/svg" xmlns:xlink="http://www.w3.org/1999/xlink" x="0px" y="0px"
	 viewBox="0 0 275.29 138.07" style="enable-background:new 0 0 275.29 138.07;" xml:space="preserve">
<style type="text/css">
	.st0{fill:#4C4A4B;}
	.st1{fill:#E5E5E4;}
	.st2{fill:#C82128;}
	.st3{fill:#CBCBCA;}
	.st4{fill:#FFFFFF;}
</style>
<g>
	<path class="st0" d="M118.6,130.89h-4.2h-1.04h1.36h-1.04h-0.13V69.96h6.81v-4.27h-6.81v-3.81c0-0.71-0.35-1.37-0.94-1.77
		l-6.1-4.15V40.39c0-1.18-0.96-2.14-2.14-2.14h-9.98c-1.18,0-2.14,0.96-2.14,2.14v5.9l-1.32-0.9c-0.73-0.49-1.68-0.49-2.4,0
		L66.84,60.11c-0.59,0.4-0.94,1.06-0.94,1.77v3.81h-7.86v-3.81c0-0.71-0.35-1.37-0.94-1.77l-6.38-4.33V40.39
		c0-1.18-0.96-2.14-2.14-2.14h-9.98c-1.18,0-2.14,0.96-2.14,2.14v5.72l-1.05-0.72c-0.73-0.49-1.68-0.49-2.4,0L11.35,60.11
		c-0.59,0.4-0.94,1.06-0.94,1.77v3.81H5.28c-1.18,0-2.14,0.96-2.14,2.14c0,1.18,0.96,2.14,2.14,2.14h5.14v60.93H5.28
		c-1.18,0-2.14,0.96-2.14,2.14c0,1.18,0.96,2.14,2.14,2.14H118.6c1.18,0,2.14-0.96,2.14-2.14
		C120.74,131.85,119.78,130.89,118.6,130.89z M46.46,52.88l-5.7-3.87v-6.48h5.7V52.88z M65.9,130.89h-7.86V69.96h7.86V130.89z
		 M96.52,42.53h5.7v10.54l-5.7-3.87V42.53z M94,130.89h-8.55v-15.68H94V130.89z M109.27,130.89H98.27v-17.82
		c0-1.18-0.96-2.14-2.14-2.14H83.31c-1.18,0-2.14,0.96-2.14,2.14v17.82H70.18V63.01l19.54-13.27l19.54,13.27V130.89z"/>
	<path class="st1" d="M42.78,130.89v-17.82c0-1.18-0.96-2.14-2.14-2.14H27.82c-1.18,0-2.14,0.96-2.14,2.14v17.82H14.69V63.01
		l19.54-13.27l19.54,13.27v67.88H42.78z"/>
	<g>
		<path class="st2" d="M40.64,64.62H27.82c-1.18,0-2.14,0.96-2.14,2.14v12.83c0,1.18,0.96,2.14,2.14,2.14h12.83
			c1.18,0,2.14-0.96,2.14-2.14V66.75C42.78,65.57,41.83,64.62,40.64,64.62L40.64,64.62z M38.51,77.44"/>
		<path class="st2" d="M40.64,86.89H27.82c-1.18,0-2.14,0.96-2.14,2.14v12.83c0,1.18,0.96,2.14,2.14,2.14h12.83
			c1.18,0,2.14-0.96,2.14-2.14V89.02C42.78,87.84,41.83,86.89,40.64,86.89L40.64,86.89z M38.51,99.71"/>
		<path class="st0" d="M96.14,64.62H83.31c-1.18,0-2.14,0.96-2.14,2.14v12.83c0,1.18,0.96,2.14,2.14,2.14h12.83
			c1.18,0,2.14-0.96,2.14-2.14V66.75C98.27,65.57,97.32,64.62,96.14,64.62L96.14,64.62z M94,77.44h-8.55v-8.55H94V77.44z M94,77.44"
			/>
		<path class="st0" d="M96.14,87.06H83.31c-1.18,0-2.14,0.96-2.14,2.14v12.83c0,1.18,0.96,2.14,2.14,2.14h12.83
			c1.18,0,2.14-0.96,2.14-2.14V89.2C98.27,88.02,97.32,87.06,96.14,87.06L96.14,87.06z M94,99.89h-8.55v-8.55H94V99.89z M94,99.89"
			/>
	</g>
	<rect x="29.95" y="115.21" class="st2" width="8.55" height="15.68"/>
	<rect x="85.45" y="115.21" class="st3" width="8.55" height="15.68"/>
	<circle class="st4" cx="36.81" cy="123.15" r="0.7"/>
	<circle class="st0" cx="92.48" cy="123.15" r="0.7"/>
</g>
<g>
	<g>
		<path class="st0" d="M141.65,133.72V15.04c0-0.8,0.65-1.45,1.45-1.45h74.21c0.8,0,1.45,0.65,1.45,1.45v118.68
			c0,0.8-0.65,1.45-1.45,1.45h-74.21C142.29,135.17,141.65,134.52,141.65,133.72z M214.54,17.77h-68.69v113.21h68.69V17.77z"/>
		<path class="st0" d="M215.02,133.72V41.09c0-0.8,0.65-1.45,1.45-1.45l46.32,0c0.8,0,1.45,0.65,1.45,1.45v92.63
			c0,0.8-0.65,1.45-1.45,1.45h-46.32C215.67,135.17,215.02,134.52,215.02,133.72z"/>
		<rect x="218.83" y="43.26" class="st1" width="41.6" height="88.1"/>
		<path class="st0" d="M215.02,52.67V41.09c0-0.8,0.65-1.45,1.45-1.45l46.32,0c0.8,0,1.45,0.65,1.45,1.45v11.58
			c0,0.8-0.65,1.45-1.45,1.45h-46.32C215.67,54.11,215.02,53.47,215.02,52.67z"/>
		<path class="st0" d="M150.74,16.31V4.73c0-0.8,0.71-1.45,1.59-1.45h54.06c0.88,0,1.59,0.65,1.59,1.45v11.58
			c0,0.8-0.71,1.45-1.59,1.45h-54.06C151.45,17.75,150.74,17.11,150.74,16.31z"/>
		<path class="st0" d="M228.05,42.54c1.05,0,1.91-0.65,1.91-1.45V17.93c0-0.8-0.85-1.45-1.91-1.45c-1.05,0-1.91,0.65-1.91,1.45
			v23.16C226.14,41.89,226.99,42.54,228.05,42.54z"/>
		<path class="st0" d="M239.62,42.54c1.05,0,1.91-0.65,1.91-1.45V26.61c0-0.8-0.85-1.45-1.91-1.45c-1.05,0-1.91,0.65-1.91,1.45
			v14.47C237.72,41.89,238.57,42.54,239.62,42.54z"/>
		<path class="st0" d="M251.2,42.54c1.05,0,1.91-0.65,1.91-1.45V12.14c0-0.8-0.85-1.45-1.91-1.45c-1.05,0-1.91,0.65-1.91,1.45v28.95
			C249.3,41.89,250.15,42.54,251.2,42.54z"/>
		<path class="st0" d="M159.8,133.72v-17.37c0-0.8,0.65-1.45,1.45-1.45h38.77c0.8,0,1.45,0.65,1.45,1.45v17.37
			c0,0.8-0.65,1.45-1.45,1.45h-38.77C160.45,135.17,159.8,134.52,159.8,133.72z M194.94,119.12h-20.99v11.83h20.99V119.12z"/>
		<path class="st0" d="M245.41,71.48h5.79c0.8,0,1.45-0.65,1.45-1.45v-8.68c0-0.8-0.65-1.45-1.45-1.45c-0.8,0-1.45,0.65-1.45,1.45
			v7.24h-4.34c-0.8,0-1.45,0.65-1.45,1.45C243.97,70.83,244.61,71.48,245.41,71.48z"/>
		<path class="st0" d="M228.05,71.48h5.79c0.8,0,1.45-0.65,1.45-1.45v-8.68c0-0.8-0.65-1.45-1.45-1.45c-0.8,0-1.45,0.65-1.45,1.45
			v7.24h-4.34c-0.8,0-1.45,0.65-1.45,1.45C226.6,70.83,227.25,71.48,228.05,71.48z"/>
		<path class="st0" d="M245.41,88.85h5.79c0.8,0,1.45-0.65,1.45-1.45v-8.68c0-0.8-0.65-1.45-1.45-1.45c-0.8,0-1.45,0.65-1.45,1.45
			v7.24h-4.34c-0.8,0-1.45,0.65-1.45,1.45C243.97,88.2,244.61,88.85,245.41,88.85z"/>
		<path class="st0" d="M228.05,88.85h5.79c0.8,0,1.45-0.65,1.45-1.45v-8.68c0-0.8-0.65-1.45-1.45-1.45c-0.8,0-1.45,0.65-1.45,1.45
			v7.24h-4.34c-0.8,0-1.45,0.65-1.45,1.45C226.6,88.2,227.25,88.85,228.05,88.85z"/>
		<path class="st0" d="M245.41,106.22h5.79c0.8,0,1.45-0.65,1.45-1.45v-8.68c0-0.8-0.65-1.45-1.45-1.45c-0.8,0-1.45,0.65-1.45,1.45
			v7.24h-4.34c-0.8,0-1.45,0.65-1.45,1.45C243.97,105.57,244.61,106.22,245.41,106.22z"/>
		<path class="st0" d="M228.05,106.22h5.79c0.8,0,1.45-0.65,1.45-1.45v-8.68c0-0.8-0.65-1.45-1.45-1.45c-0.8,0-1.45,0.65-1.45,1.45
			v7.24h-4.34c-0.8,0-1.45,0.65-1.45,1.45C226.6,105.57,227.25,106.22,228.05,106.22z"/>
		<path class="st0" d="M137.74,135.07h132.11c0.8,0,1.45-0.92,1.45-2.06c0-1.14-0.65-2.06-1.45-2.06H137.74
			c-0.8,0-1.45,0.92-1.45,2.06C136.29,134.15,136.94,135.07,137.74,135.07z"/>
		<rect x="155.19" y="7.34" class="st1" width="48.34" height="6.36"/>
		<rect x="218.66" y="43.26" class="st4" width="41.94" height="7.24"/>
		<rect x="163.78" y="119.12" class="st3" width="33.71" height="11.83"/>
		<g>
			<rect x="196.56" y="27.13" class="st0" width="9.36" height="18.73"/>
			<rect x="182.51" y="27.13" class="st0" width="9.36" height="18.73"/>
			<rect x="168.46" y="27.13" class="st0" width="9.36" height="18.73"/>
			<rect x="196.56" y="55.22" class="st0" width="9.36" height="18.73"/>
			<rect x="182.51" y="55.22" class="st2" width="9.36" height="18.73"/>
			<rect x="168.46" y="55.22" class="st0" width="9.36" height="18.73"/>
			<rect x="154.47" y="27.13" class="st0" width="9.36" height="18.73"/>
			<rect x="154.47" y="55.22" class="st0" width="9.36" height="18.73"/>
		</g>
		<g>
			<rect x="196.56" y="83.09" class="st0" width="9.36" height="18.73"/>
			<rect x="182.51" y="83.09" class="st0" width="9.36" height="18.73"/>
			<rect x="168.46" y="83.09" class="st0" width="9.36" height="18.73"/>
			<rect x="154.47" y="83.09" class="st0" width="9.36" height="18.73"/>
		</g>
	</g>
</g>
</svg>
